<svg xmlns="http://www.w3.org/2000/svg" width="360" height="239" viewBox="0 0 360 239"><g data-name="Group 1072"><path data-name="Rectangle 466" fill="#fff" d="M0 0h360v239H0z"/><g data-name="Group 362"><g data-name="Group 361" opacity=".163"><g data-name="Group 360"><path data-name="Path 180" d="M313.335 70.487c-1.886-1.218-7.849-.119-7.849-.119s1.39-.556 1.383-1.277a1.939 1.939 0 0 0-1.2-1.648 4.488 4.488 0 0 0-2.118-.278 13.431 13.431 0 0 0-4.262.953 1.24 1.24 0 1 0-1.295-2.113 1.268 1.268 0 0 0-.141.1c.913-1.238 2.33-6.737-2.019-9.16-5.453-3.038-9.6-.536-10.483 1.291-.45-1.794-2.508-3.15-3.865-3.488a10.51 10.51 0 0 0-8 .807 11.49 11.49 0 0 0-3.071 3 5.51 5.51 0 0 0-.887 1.853 4.281 4.281 0 0 0-2.343.543c-3.216 1.794-2.171 5.857-1.5 6.77a.913.913 0 1 0-1.164 1.407 1.054 1.054 0 0 0 .1.075 9.864 9.864 0 0 0-3.15-.7 3.278 3.278 0 0 0-1.562.2 1.445 1.445 0 0 0-.893 1.218c-.007.529 1.019.94 1.019.94s-4.408-.807-5.8.093c-1.648 1.059-.688 1.357-.39 1.357q13.551-.189 27.108-.371l-.126-.079q16.51.228 33.011.45c.43.012 1.728-.385-.503-1.824z" fill="#00adb5" opacity=".5"/></g></g></g><g data-name="Group 365"><g data-name="Group 364" opacity=".147"><g data-name="Group 363"><path data-name="Path 181" d="M130.797 56.431c-2.682-1.731-11.16-.169-11.16-.169s1.976-.79 1.967-1.816a2.759 2.759 0 0 0-1.713-2.343 6.379 6.379 0 0 0-3.011-.4 19.1 19.1 0 0 0-6.06 1.355 1.761 1.761 0 0 0-1.861-2.991 1.73 1.73 0 0 0-.181.13c1.3-1.76 3.312-9.579-2.87-13.023-7.754-4.317-13.647-.76-14.905 1.837-.642-2.55-3.566-4.48-5.495-4.959A14.944 14.944 0 0 0 74.141 35.2c-1.449.678-3.4 2.992-4.366 4.272a7.814 7.814 0 0 0-1.261 2.635 6.094 6.094 0 0 0-3.331.772c-4.573 2.552-3.087 8.327-2.122 9.625a1.3 1.3 0 1 0-1.685 1.98 1.429 1.429 0 0 0 .179.128 14.054 14.054 0 0 0-4.479-1 4.664 4.664 0 0 0-2.221.292 2.054 2.054 0 0 0-1.27 1.731c-.009.753 1.449 1.336 1.449 1.336s-6.273-1.14-8.257.135c-2.343 1.505-.978 1.925-.555 1.925q19.266-.269 38.542-.527l-.179-.113q23.472.324 46.936.64c.602 0 2.447-.561-.724-2.6z" fill="#00adb5" opacity=".5"/></g></g></g><g data-name="Group 382"><g data-name="Group 361-2" opacity=".163"><g data-name="Group 360-2"><path data-name="Path 180-2" d="M264.837 42.249c-3.969-2.563-16.518-.251-16.518-.251s2.925-1.17 2.911-2.688a4.084 4.084 0 0 0-2.535-3.468 9.452 9.452 0 0 0-4.457-.585 28.31 28.31 0 0 0-8.969 2.006 2.607 2.607 0 1 0-2.733-4.441 2.508 2.508 0 0 0-.289.207c1.922-2.6 4.9-14.178-4.248-19.275-11.476-6.393-20.195-1.128-22.061 2.716-.947-3.774-5.278-6.629-8.134-7.34-6.5-1.616-10.752-1.142-16.824 1.7-2.145 1-5.028 4.429-6.462 6.323a11.581 11.581 0 0 0-1.866 3.9 9.008 9.008 0 0 0-4.93 1.142c-6.769 3.774-4.568 12.326-3.148 14.248a1.922 1.922 0 1 0-2.455 2.957 1.82 1.82 0 0 0 .227.163 20.817 20.817 0 0 0-6.629-1.476 6.9 6.9 0 0 0-3.287.432 3.038 3.038 0 0 0-1.88 2.563c-.014 1.114 2.145 1.978 2.145 1.978s-9.276-1.7-12.214.2c-3.468 2.228-1.448 2.855-.822 2.855q28.515-.4 57.046-.78l-.265-.167q34.742.48 69.469.947c.892-.009 3.622-.845-1.072-3.866z" fill="#00adb5" opacity=".5"/></g></g></g><g data-name="Group 1065"><g data-name="404"><g data-name="组 1077" style="isolation:isolate" fill="#dbedef"><path data-name="路径 484" d="M148.197 148.058h6.607v9.329h-6.607v12.612h-11.571v-12.612h-23.9l-.521-7.287 24.3-38.4h11.691zm-24.464 0h12.893v-20.58l-.761 1.321z"/><path data-name="路径 485" d="M200.248 145.896q0 12.092-5 18.5t-14.654 6.406q-9.531 0-14.574-6.286t-5.165-18.018v-10.73q0-12.211 5.065-18.538t14.594-6.326q9.528 0 14.574 6.265t5.165 18zm-11.571-11.8q0-7.254-1.983-10.561a6.7 6.7 0 0 0-6.185-3.306 6.58 6.58 0 0 0-6.026 3.146q-1.942 3.147-2.062 9.839v14.188q0 7.132 1.941 10.6a6.608 6.608 0 0 0 6.227 3.467 6.5 6.5 0 0 0 6.126-3.326q1.882-3.327 1.962-10.18z"/><path data-name="路径 486" d="M242.289 148.058h6.606v9.329h-6.606v12.612h-11.571v-12.612h-23.9l-.52-7.287 24.3-38.4h11.691zm-24.464 0h12.893v-20.58l-.761 1.321z"/></g></g><g data-name="404-2"><g data-name="组 1078" style="isolation:isolate" fill="#00adb5"><path data-name="路径 487" d="M144.197 144.058h6.607v9.329h-6.607v12.612h-11.571v-12.612h-23.9l-.521-7.287 24.3-38.4h11.691zm-24.464 0h12.893v-20.58l-.761 1.321z"/><path data-name="路径 488" d="M196.248 141.896q0 12.092-5 18.5t-14.654 6.406q-9.531 0-14.574-6.286t-5.165-18.018v-10.73q0-12.211 5.065-18.538t14.594-6.326q9.528 0 14.574 6.265t5.165 18zm-11.571-11.8q0-7.254-1.983-10.561a6.7 6.7 0 0 0-6.185-3.306 6.58 6.58 0 0 0-6.026 3.146q-1.942 3.147-2.062 9.839v14.188q0 7.132 1.941 10.6a6.608 6.608 0 0 0 6.227 3.467 6.5 6.5 0 0 0 6.126-3.326q1.882-3.327 1.962-10.18z"/><path data-name="路径 489" d="M238.289 144.058h6.606v9.329h-6.606v12.612h-11.571v-12.612h-23.9l-.52-7.287 24.3-38.4h11.691zm-24.464 0h12.893v-20.58l-.761 1.321z"/></g></g></g><path data-name="Path 467" d="M28.054 223s120.353-75.99 300.488 0" fill="none" stroke="#4baab2" stroke-width="2"/><g data-name="Group 1068"><g data-name="Group 1067" opacity=".084"><g data-name="Group 1066"><path data-name="Path 468" d="M47.966 72.192s14.763.923 21.64 9.062l-3.943.923s3.851-.755 6.235 0c-1.559.755-4.126.336-6.51 1.846 2.842-.336 9.444-.168 10.728 4.028h-8.069s7.794 1.007 8.069 2.266a41.765 41.765 0 0 0 1.742 4.615l-5.593.671h6.327l-6.051.755 6.051.839h-4.585l5.135 2.433s-4.126 7.72-2.751 14.013c-2.476-1.762-8.161-9.146-9.536-9.482s-3.3-6.545-3.3-6.545l2.751-.839-2.751-.336s1.742-1.175 1.834-2.182-2.293.5-2.293.5-1.375-2.6-2.659-3.273c.825-.588 3.576-2.6 3.576-2.6a33.52 33.52 0 0 0-5.593.839 18.475 18.475 0 0 1 3.118-2.853l-3.759 1.767s-1.652-12.167-9.813-16.447z" fill="#00adb5"/><path data-name="Path 469" d="M76.002 113.214c-.411.654 7.991-32.851 29.3-32.851 6.694 0 11.691 7.426 11.049 10.95 0 0-.275 4.867-1.467 5.958-.092-2.937-.366-7.44-.366-7.44s-.184 5.258-1.8 5.258a6.749 6.749 0 0 0-4.952-3.524 43.537 43.537 0 0 0-1.773-4.9 36.151 36.151 0 0 1 .031 4.9c-.428-1.259-1.406-3.525-1.8-3.608a31.837 31.837 0 0 1 .825 4.7c-1.131 0-4.921-.956-8.589 3.941-1.65-1-4.432-3.186-4.432-3.186l4.14 4.475s-5.485-3.524-7.349-3.776c-1.376.056 4.279 4.979 4.462 7.189-1.345-.252-4.1-4.648-6.052-4.7-.061.926 3.362 4.9 3.821 6.3-1.681.531-5.319 2.685-5.96 2.545s-1.07-.251-1.07-.251l2.6 2.266-3.484-2.07a14.423 14.423 0 0 1 1.345 2.237c-.197-.007-6.951 3.154-8.479 5.587z" fill="#00adb5"/><path data-name="Path 470" d="M76.002 113.214l6.908-3.972a14.158 14.158 0 0 0 4.279 1.231 4.853 4.853 0 0 0 2.567-.671v2.461l3.057-4.139-.856 4.587 3.668-3.245s7.7 3.133 10.147 5.706a12.971 12.971 0 0 0-4.4 2.909 33.018 33.018 0 0 1 5.624-.783 18.731 18.731 0 0 1 7.213 14.656c0 4.419-.733 6.1-.733 6.1s-3.178-8-6.724-7.944c-.122-1.007-.55-1.287-.55-1.287l-.122 1.063-3.729-1.4a9.629 9.629 0 0 0-.489-2.685 20.125 20.125 0 0 0-.183 2.461 13.842 13.842 0 0 0-11.186-5.174 4.056 4.056 0 0 1 .688-3.035 10.582 10.582 0 0 0-2.109 2.434 6.4 6.4 0 0 1 .183-3.482 8.45 8.45 0 0 1-1.971 1.846s-3.117-2.14-5.364-2.14c-1.792.083-5.597-3.861-5.918-5.497z" fill="#00adb5"/><path data-name="Path 471" d="M77.024 112.726s.306 10.237 2.261 14.153a10.221 10.221 0 0 0-5.807 1.51c2.628 0 6.051.392 6.235 1.287-3-.279-6.174-.391-6.847 0 2.017.168 6.48 2.517 7.213 2.517a11.016 11.016 0 0 0-2.2 8.391c-1.283-.391 0 .9 0 .9a18.753 18.753 0 0 0-5.013-1.175c-1.712.056-1.956 1.175-1.956 1.175s6.235 1.063 6.3 2.741c-.183.951-3.607.615-5.013.615 1.956.9 4.34 2.238 4.34 3.356-2.017-.336-3.545-1.622-5.379-.727 2.2.112 6.052 1.51 5.991 3.188-1.1.951-5.869 6.322-6.48 9.287-1.712-1.007-10.453-10.181-9.414-17.4.061-2.293.489-1.735.489-1.735l2.14-.838-2.323-.391-1.345-1.119s3.973-.587 4.462-.727c-.7-.392-2.72-1.147-2.751-2.1.122-.168.765-.336.765-.336l.092-1.538a4.526 4.526 0 0 1-.489-2.182c0-1.371 2.567-.811 2.567-.811l.122-.811s-2.384-.392-2.354-1.343c.459-.084 2.262-.14 2.262-.14l.031-.447-2.386-1.425s5.073-12.085 14.487-13.875z" fill="#00adb5"/><path data-name="Path 472" d="M43.587 144.556s.184-6.461 1.742-8.643c-.917-.336-.871-1.007-.871-1.007h2.338a11.4 11.4 0 0 0 1.559-3.189c-.825-1.678-3.118-5.621-3.118-5.621l4.952 3.944s3.026-4.028 5.41-3.944c-1.65-1.595-3.392-5.874-3.392-5.874l4.218 5.454s.917-9.649 1.834-9.566 3.118 5.79 3.118 5.79l-1.161-4.363 2.445 2.937s6.051-6.014 13.112-7.748a26.874 26.874 0 0 0-8.8-1.734c-4.493 0-26.224 1.762-26.224 23.159.377 10.563 2.476 10.405 2.476 10.405" fill="#00adb5"/><path data-name="Path 473" d="M76.391 113.644S60.253 99.125 57.778 98.372c-.183 1.93-.459 5.2-.459 5.2l-1.834-5.2-.641 4.953-2.109-5.454s-1.834-.084-4.768 0-12.057 2.643-12.057 2.643l1.513 4.867-5.226-6.377 3.53 5.245-3.3-2.811 1.513 3.692-2.705-2.686s-9.306 7.622-15.114 7.678c1.589 1.79 8.466 6.377 13.326 6.167 1.467.041 2.109.006 2.109.006l-.092-2.64 1.926 3.053.642-3.566.183 2.1a14.889 14.889 0 0 1 3.439-.923 17.023 17.023 0 0 1 3.118.559l-.459-6.321 2.43 5.594.55-6.545 3.622 5.538a8.911 8.911 0 0 1 9.4-.252l1.376-3.482 1.234 3.015 2.155-2.392.183 2.517s11.506-.207 15.128 1.094z" fill="#00adb5"/><path data-name="Path 474" d="M49.372 72.331s16.592 1.82 26.763 39.358c-2.819-5.281-9.394-32.334-26.763-39.358z" fill="#469f9f"/><path data-name="Path 475" d="M72.531 111.26s-15.336-10.892-30.2-7.586-21.048 8.138-26.33 6.8c5.2 1.093 23.842-5.593 26.8-5.884 6.963-.688 15.179.351 29.73 6.67z" fill="#469f9f"/><path data-name="Path 476" d="M75.771 113.712s-6.2 2.765-8.4 21.481 1.8 20.193 2.779 23.343c-.431-4.153-4.813-7.08-1.214-24.2s5.277-18.408 6.835-20.624z" fill="#469f9f"/><path data-name="Path 477" d="M77.776 113.224s9.507-.182 16.314 3.053 16.784 7.209 19.131 17.735c-2.464-5.048-6.455-12.248-19.013-16.113s-13.723-4.602-16.432-4.675z" fill="#469f9f"/><path data-name="Path 478" d="M73.315 112.726s-5.547-2.417-14.588 0-16.788 9-17.023 20.748 1.626 10.921 1.626 10.921-3.691-13.2 1.426-21.089 13.498-12.319 28.559-10.58z" fill="#469f9f"/><path data-name="Path 479" d="M115.216 95.614s4.675-12.083-9.976-14.983c-13.1-2.592-27.012 22.592-28.764 30.63 1.065-.842 13.369-32.949 29.175-30.2 5.141.892 11.15 3.597 9.565 14.553z" fill="#469f9f"/></g><path data-name="Path 480" d="M73.77 112.726s37.937 26.3 51.885 82.161c-7.724.56-10.061-.579-10.061-.579s-10.846-53.072-41.824-81.582z" fill="#00adb5"/></g><path data-name="Path 481" d="M31.49 221.158c-5.615-1.824 290.188 0 290.188 0s-56.942-28.861-145.186-32.3-139.387 34.129-145.002 32.3z" fill="#fff"/></g></g></svg>