<svg xmlns="http://www.w3.org/2000/svg" width="32" height="32" viewBox="0 0 32 32"><g transform="translate(-16 -90)"><g transform="translate(16 90)"><path d="M16,0A16,16,0,1,1,0,16,16,16,0,0,1,16,0Z" fill="#efeded"/></g><path d="M106.63,79.6a7.082,7.082,0,1,0-7.812,0,11.41,11.41,0,0,0-7.425,10.693h1.888a9.443,9.443,0,1,1,18.885,0h1.888A11.41,11.41,0,0,0,106.63,79.6Zm-3.906-.713a5.228,5.228,0,1,1,5.193-5.228A5.216,5.216,0,0,1,102.724,78.886Z" transform="translate(-70.868 28.558)" fill="#fff"/></g></svg>