<?xml version="1.0" encoding="UTF-8"?>
<svg width="328px" height="164px" viewBox="0 0 328 164" version="1.1" xmlns="http://www.w3.org/2000/svg" xmlns:xlink="http://www.w3.org/1999/xlink">
    <!-- Generator: Sketch 60.1 (88133) - https://sketch.com -->
    <title>图片损坏-2:1</title>
    <desc>Created with Sketch.</desc>
    <defs>
        <rect id="path-1" x="0" y="0" width="328" height="164" rx="5"></rect>
    </defs>
    <g id="1.3.1" stroke="none" stroke-width="1" fill="none" fill-rule="evenodd">
        <g id="搜索结果备份-3" transform="translate(-16.000000, -142.000000)">
            <g id="图片损坏-2:1" transform="translate(16.000000, 142.000000)">
                <g id="位图备份-7">
                    <mask id="mask-2" fill="white">
                        <use xlink:href="#path-1"></use>
                    </mask>
                    <use id="蒙版" fill="#F6F7F9" xlink:href="#path-1"></use>
                </g>
                <g id="编组" transform="translate(134.000000, 46.000000)" fill-rule="nonzero">
                    <path d="M60,60.2185792 L60,13.5519126 C59.9890173,9.87457301 57.0106729,6.89622857 53.3333333,6.8852459 L6.66666667,6.8852459 C2.98932711,6.89622857 0.0109826704,9.87457301 0,13.5519126 L0,60.2185792 C0.0109826704,63.8959188 2.98932711,66.8742632 6.66666667,66.8852459 L53.3333333,66.8852459 C57.0106729,66.8742632 59.9890173,63.8959188 60,60.2185792 L60,60.2185792 Z M18.3333333,41.8852459 L26.6666667,51.9185792 L38.3333333,36.8852459 L53.3333333,56.8852459 L6.66666667,56.8852459 L18.3333333,41.8852459 Z" id="形状" fill="#EDEEF0"></path>
                    <polygon id="路径" fill="#F6F7F9" points="23.2321264 35.7106535 32.1049273 0 38.3984005 1.66283178 30.8098492 32.2106608 46.2295082 40.46224 23.9857838 72.7868852 18.6885246 68.9024744 36.6073811 42.8648531"></polygon>
                </g>
            </g>
        </g>
    </g>
</svg>