<svg xmlns="http://www.w3.org/2000/svg" width="269.164" height="215.224" viewBox="0 0 269.164 215.224"><g data-name="组 2167"><g data-name="组 362"><g data-name="组 361" opacity=".163"><g data-name="组 360"><path data-name="路径 180" d="M267.893 62.283c-1.886-1.218-7.849-.119-7.849-.119s1.39-.556 1.383-1.277a1.94 1.94 0 0 0-1.2-1.648 4.494 4.494 0 0 0-2.118-.278 13.468 13.468 0 0 0-4.262.953 1.239 1.239 0 1 0-1.436-2.012c.913-1.238 2.33-6.737-2.019-9.16-5.453-3.038-9.6-.536-10.483 1.291-.45-1.794-2.508-3.15-3.865-3.488a10.514 10.514 0 0 0-7.995.807 11.519 11.519 0 0 0-3.071 3 5.511 5.511 0 0 0-.887 1.853 4.286 4.286 0 0 0-2.343.543c-3.216 1.794-2.171 5.857-1.5 6.77A.913.913 0 1 0 219.189 61a9.9 9.9 0 0 0-3.15-.7 3.287 3.287 0 0 0-1.562.205 1.444 1.444 0 0 0-.893 1.218c-.007.529 1.019.94 1.019.94s-4.408-.807-5.8.093c-1.648 1.059-.688 1.357-.39 1.357q13.551-.189 27.108-.371l-.126-.079q16.509.228 33.011.45c.42.003 1.718-.394-.513-1.83z" fill="#00adb5" opacity=".5"/></g></g></g><g data-name="组 365"><g data-name="组 364" opacity=".147"><g data-name="组 363"><path data-name="路径 181" d="M85.355 48.224c-2.682-1.731-11.16-.169-11.16-.169s1.976-.79 1.967-1.816a2.758 2.758 0 0 0-1.713-2.343 6.39 6.39 0 0 0-3.011-.4 19.149 19.149 0 0 0-6.06 1.355 1.761 1.761 0 1 0-2.042-2.861c1.3-1.76 3.312-9.579-2.87-13.023-7.754-4.317-13.647-.76-14.905 1.837-.642-2.55-3.566-4.48-5.495-4.959a14.949 14.949 0 0 0-11.367 1.148c-1.449.678-3.4 2.992-4.366 4.272a7.836 7.836 0 0 0-1.261 2.635 6.094 6.094 0 0 0-3.331.772c-4.573 2.552-3.087 8.327-2.122 9.625a1.3 1.3 0 1 0-1.506 2.108 14.072 14.072 0 0 0-4.479-1 4.673 4.673 0 0 0-2.221.292 2.054 2.054 0 0 0-1.27 1.731c-.009.753 1.449 1.336 1.449 1.336s-6.273-1.14-8.257.135c-2.343 1.505-.978 1.925-.555 1.925q19.266-.268 38.542-.527l-.179-.113q23.473.325 46.936.64c.602 0 2.447-.561-.724-2.6z" fill="#078e8e" opacity=".5"/></g></g></g><g data-name="组 382"><g data-name="组 361" opacity=".163"><g data-name="组 360"><path data-name="路径 180" d="M219.395 34.042c-3.969-2.563-16.518-.251-16.518-.251s2.925-1.17 2.911-2.688a4.083 4.083 0 0 0-2.535-3.468 9.458 9.458 0 0 0-4.457-.585 28.342 28.342 0 0 0-8.969 2.006 2.607 2.607 0 1 0-3.022-4.234c1.922-2.6 4.9-14.178-4.248-19.275-11.476-6.393-20.195-1.128-22.061 2.716-.947-3.774-5.278-6.629-8.134-7.34-6.5-1.616-10.752-1.142-16.824 1.7-2.145 1-5.028 4.429-6.462 6.323a11.6 11.6 0 0 0-1.866 3.9 9.019 9.019 0 0 0-4.93 1.142c-6.769 3.774-4.568 12.326-3.148 14.248a1.922 1.922 0 1 0-2.228 3.12 20.827 20.827 0 0 0-6.629-1.476 6.917 6.917 0 0 0-3.287.432 3.04 3.04 0 0 0-1.88 2.563c-.014 1.114 2.145 1.978 2.145 1.978s-9.276-1.7-12.214.195c-3.468 2.228-1.448 2.855-.822 2.855q28.516-.4 57.046-.78l-.265-.167q34.742.481 69.469.947c.892-.004 3.622-.84-1.072-3.861z" fill="#00adb5" opacity=".5"/></g></g></g><g data-name="组 698"><g data-name="组 697"><g data-name="组 692"><g data-name="组 691"><g data-name="组 689"><path data-name="路径 356" d="M163.535 199.842l-52.155-.241a11.361 11.361 0 0 1-11.314-11.409l.553-130.754a11.361 11.361 0 0 1 11.413-11.313l52.155.241a11.362 11.362 0 0 1 11.309 11.409l-.553 130.754a11.361 11.361 0 0 1-11.408 11.313z" fill="#263238"/></g><g data-name="组 690"><path data-name="路径 357" d="M163.846 50.947l-10.112-.046a2.512 2.512 0 0 0-2.466 2.556l-.008 1.834a2.512 2.512 0 0 1-2.466 2.556l-19.71-.091a2.514 2.514 0 0 1-2.445-2.578l.008-1.834a2.514 2.514 0 0 0-2.445-2.578l-3.556-.017-8.85-.041a7.957 7.957 0 0 0-7.993 7.923l-.539 127.625a7.957 7.957 0 0 0 7.92 7.991l52.051.24a7.957 7.957 0 0 0 7.993-7.923l.539-127.626a7.957 7.957 0 0 0-7.921-7.991z" fill="#fff"/></g></g></g><g data-name="组 693"><path data-name="矩形 340" fill="#455a64" d="M131.904 66.563l13.429.062-.011 2.464-13.43-.062z"/></g><g data-name="组 694"><path data-name="路径 358" d="M134.657 182.422a1.076 1.076 0 1 1-1.069-1.151 1.111 1.111 0 0 1 1.069 1.151z" fill="#455a64"/></g><g data-name="组 695"><path data-name="路径 359" d="M137.985 182.437a1.076 1.076 0 1 1-1.069-1.15 1.111 1.111 0 0 1 1.069 1.15z" fill="#455a64"/></g><g data-name="组 696"><path data-name="路径 360" d="M141.312 182.452a1.076 1.076 0 1 1-1.069-1.15 1.111 1.111 0 0 1 1.069 1.15z" fill="#455a64"/></g></g><g data-name="组 688"><g data-name="组 580"><g data-name="组 579" transform="translate(95.458 77.025)"><rect data-name="矩形 336" width="52.598" height="13.737" rx="3.932" transform="rotate(-4.124 52.522 1.891)" fill="#00adb5"/><path data-name="矩形 337" fill="#fafafa" d="M15.092 6.275l12.914-.931.07.968-12.914.931z"/><path data-name="矩形 338" fill="#fafafa" d="M15.487 11.748l22.627-1.631.07.968-22.627 1.631z"/><path data-name="矩形 339" fill="#fafafa" d="M15.285 8.945l32.778-2.367.07.968-32.778 2.367z"/><g data-name="组 578"><path data-name="路径 280" d="M8.883 10.443a1.726 1.726 0 0 0 .911-1.667 1.622 1.622 0 1 0-3.231.218 1.724 1.724 0 0 0 1.145 1.534 2.591 2.591 0 0 0-2.052 2.036 3.671 3.671 0 0 0 2.328 1.046l1-.067a3.67 3.67 0 0 0 2.188-1.381 2.549 2.549 0 0 0-2.289-1.719z" fill="#fafafa"/><g data-name="组 577"><path data-name="路径 281" d="M8.499 13.613c0-.027.327-.034.874-.222a3.671 3.671 0 0 0 1.872-1.484 3.592 3.592 0 0 0 .251-3.423 3.587 3.587 0 0 0-1.365-1.562 3.558 3.558 0 0 0-4.207.3 3.585 3.585 0 0 0-1.127 1.742 3.59 3.59 0 0 0 .739 3.352 3.671 3.671 0 0 0 2.065 1.2c.569.107.9.067.9.094a.884.884 0 0 1-.235.028 2.932 2.932 0 0 1-.678-.034 3.662 3.662 0 0 1-2.173-1.18 3.715 3.715 0 0 1-.832-1.525 3.779 3.779 0 0 1 .009-1.994 3.786 3.786 0 0 1 1.185-1.856 3.766 3.766 0 0 1 4.476-.322 3.785 3.785 0 0 1 1.438 1.667 3.779 3.779 0 0 1 .3 1.972 3.714 3.714 0 0 1-.6 1.628 3.664 3.664 0 0 1-1.981 1.479 2.919 2.919 0 0 1-.666.131.884.884 0 0 1-.245.009z" fill="#fafafa"/></g></g></g></g><g data-name="组 687"><path data-name="路径 282" d="M86.156 209.711l-.652 3.778 5.821.424.021-3.712z" fill="#00adb5"/><g data-name="组 581"><path data-name="路径 283" d="M88.776 209.763a17.091 17.091 0 0 1-.382 3.43 17.081 17.081 0 0 1 .382-3.43z" fill="#263238"/></g><g data-name="组 582"><path data-name="路径 284" d="M91.331 213.506a4.5 4.5 0 0 1-.843-.063l-2.023-.224a38.92 38.92 0 0 1-2.02-.276 3.712 3.712 0 0 1-.826-.186 4.536 4.536 0 0 1 .843.063l2.024.224c.79.091 1.505.187 2.02.276a3.727 3.727 0 0 1 .825.186z" fill="#263238"/></g><g data-name="组 635"><g data-name="组 587"><g data-name="组 584"><g data-name="组 583"><path data-name="路径 285" d="M110.193 212.73l.743-3.3-6.179-1.431-1.137 4.822.377.113c1.683.49 8.593 2.37 9.813 2.289 1.359-.096-3.617-2.493-3.617-2.493z" fill="#00adb5"/></g></g><g data-name="组 586"><g data-name="组 585"><path data-name="路径 286" d="M105.871 213.287a2.2 2.2 0 0 0-.483-1.5 2.138 2.138 0 0 0-1.34-.784l-.4 1.726z" fill="#ebebeb"/></g></g></g><g data-name="组 589"><g data-name="组 588"><path data-name="路径 287" d="M112.603 213.993s1.718.957 1.417 1.207-7.354-1.388-10.4-2.383l.042-.136 8.212 1.981s.366-.738.729-.669z" fill="#ebebeb"/></g></g><g data-name="组 592"><g data-name="组 591"><g data-name="组 590"><path data-name="路径 288" d="M103.565 212.654a.537.537 0 0 0 .1.036l.3.089 1.112.309c.941.254 2.245.588 3.692.926s2.766.614 3.722.8l1.134.214.309.053a.553.553 0 0 0 .109.013.572.572 0 0 0-.106-.029l-.306-.067-1.129-.238c-.953-.2-2.268-.486-3.716-.823s-2.752-.663-3.7-.9l-1.117-.285-.3-.075a.571.571 0 0 0-.104-.023z" fill="#263238"/></g></g></g><g data-name="组 595"><g data-name="组 594"><g data-name="组 593"><path data-name="路径 289" d="M111.849 214.756a2.618 2.618 0 0 1 .334-.487 2.571 2.571 0 0 1 .483-.341 1.024 1.024 0 0 0-.817.828z" fill="#263238"/></g></g></g><g data-name="组 598"><g data-name="组 597"><g data-name="组 596"><path data-name="路径 290" d="M110.241 213.413c.015.015.127-.071.25-.192s.211-.232.2-.247-.127.071-.25.192-.215.228-.2.247z" fill="#263238"/></g></g></g><g data-name="组 601"><g data-name="组 600"><g data-name="组 599"><path data-name="路径 291" d="M109.802 213.028c.01.019.123-.024.251-.095s.225-.143.215-.162-.123.024-.252.095-.224.144-.214.162z" fill="#263238"/></g></g></g><g data-name="组 604"><g data-name="组 603"><g data-name="组 602"><path data-name="路径 292" d="M109.621 212.367a1.452 1.452 0 1 0 .331.041.748.748 0 0 0-.331-.041z" fill="#263238"/></g></g></g><g data-name="组 607"><g data-name="组 606"><g data-name="组 605"><path data-name="路径 293" d="M109.607 211.935a.934.934 0 0 0 .718.225 27.762 27.762 0 0 1-.718-.225z" fill="#263238"/></g></g></g><g data-name="组 610"><g data-name="组 609"><g data-name="组 608"><path data-name="路径 294" d="M110.575 212.919a1.179 1.179 0 0 0 .4.09 2.377 2.377 0 0 0 .444 0 1.18 1.18 0 0 0 .265-.044.219.219 0 0 0 .127-.1.16.16 0 0 0-.024-.173.747.747 0 0 0-.95 0 .724.724 0 0 0-.191.235c-.032.065-.04.1-.035.105a1.16 1.16 0 0 1 .26-.3.737.737 0 0 1 .39-.142.633.633 0 0 1 .466.142c.053.061.011.13-.069.155a1.225 1.225 0 0 1-.245.044 2.769 2.769 0 0 1-.434.011c-.25-.001-.401-.036-.404-.023z" fill="#263238"/></g></g></g><g data-name="组 613"><g data-name="组 612"><g data-name="组 611"><path data-name="路径 295" d="M110.674 212.961a.4.4 0 0 0 .11-.265.676.676 0 0 0-.041-.315.409.409 0 0 0-.284-.279.163.163 0 0 0-.165.155.446.446 0 0 0 .026.193 1.241 1.241 0 0 0 .132.284.6.6 0 0 0 .19.214c.009-.008-.062-.09-.143-.241a1.454 1.454 0 0 1-.111-.277c-.035-.1-.037-.256.067-.251s.18.136.222.229a.675.675 0 0 1 .053.284 1.46 1.46 0 0 1-.056.269z" fill="#263238"/></g></g></g><g data-name="组 616"><g data-name="组 615"><g data-name="组 614"><path data-name="路径 296" d="M104.084 210.993c0 .014.181.024.452.122a1.987 1.987 0 0 1 1.319 1.666c.033.287 0 .467.015.468a.383.383 0 0 0 .029-.125 1.651 1.651 0 0 0 .01-.349 1.927 1.927 0 0 0-1.356-1.712 1.649 1.649 0 0 0-.342-.07.375.375 0 0 0-.127 0z" fill="#263238"/></g></g></g><g data-name="组 619"><g data-name="组 618"><g data-name="组 617"><path data-name="路径 297" d="M105.321 208.571a10.94 10.94 0 0 0-.348 1.257 11.085 11.085 0 0 0-.274 1.275 10.976 10.976 0 0 0 .348-1.257 11.113 11.113 0 0 0 .274-1.275z" fill="#455a64"/></g></g></g><g data-name="组 622"><g data-name="组 621"><g data-name="组 620"><path data-name="路径 298" d="M106.788 212.865a5.218 5.218 0 0 0 1.8.436c0-.022-.406-.091-.9-.212s-.893-.245-.9-.224z" fill="#263238"/></g></g></g><g data-name="组 625"><g data-name="组 624"><g data-name="组 623"><path data-name="路径 299" d="M105.578 212.582c-.019.012.013.093.033.2s.023.189.045.193.055-.09.031-.208-.092-.197-.109-.185z" fill="#263238"/></g></g></g><g data-name="组 628"><g data-name="组 627"><g data-name="组 626"><path data-name="路径 300" d="M105.254 211.908c-.018.011.007.085.056.164s.1.135.122.124-.007-.085-.056-.164-.105-.135-.122-.124z" fill="#263238"/></g></g></g><g data-name="组 631"><g data-name="组 630"><g data-name="组 629"><path data-name="路径 301" d="M104.661 211.497c0 .022.081.04.165.094s.138.116.157.106-.012-.107-.117-.171-.207-.049-.205-.029z" fill="#263238"/></g></g></g><g data-name="组 634"><g data-name="组 633"><g data-name="组 632"><path data-name="路径 302" d="M104.224 211.267c-.012.018.016.058.063.089s.094.043.106.026-.016-.057-.063-.09-.097-.042-.106-.025z" fill="#263238"/></g></g></g></g><path data-name="路径 303" d="M142.386 88.756c-.463-.672-3.355 1.121-3.611 1.255s-.458-.231-.22-.34c.341-.156 3.889-1.88 3.44-2.544-.249-.369-.869.139-.869.139s-3.2 1.857-3.4 1.537 1.638-1.479 2.286-1.824.739-.785.353-.943a11.878 11.878 0 0 0-2.909 1.259c-.633.356-2.353 1.365-1.91.178a3.256 3.256 0 0 0 .105-2.538.4.4 0 0 0-.666.344 4.617 4.617 0 0 1-.212 1.26 2.293 2.293 0 0 1-.433.929c-.124.142-.237.273-.344.4l-.008-.016-.335.424c-.417.5-.626.79-.626.79l-16.745 21.189.9 8.8 19.42-26.381-.012-.022a35.579 35.579 0 0 0 3.654-1.127c1.742-.723 1.68-.88 1.561-1.069-.319-.506-3.112 1.156-2.719.451s3.656-1.636 3.3-2.151z" fill="#e5baab"/><path data-name="路径 304" d="M94.999 103.93l2.335-13.668a42.03 42.03 0 0 0 1.088-1.446 3.134 3.134 0 0 1 .761-.743 4.784 4.784 0 0 1 1.161-.641.412.412 0 0 0 .108-.771 3.379 3.379 0 0 0-2.449.976c-1.01.842-.614-1.189-.483-1.931a12.32 12.32 0 0 0 .232-3.281c-.288-.324-.689-.075-.8.67s-.611 2.955-1 2.867.335-3.859.335-3.859.284-.781-.162-.9c-.8-.211-1.273 3.856-1.308 4.244-.025.27-.451.189-.409-.1s.8-3.746-.013-3.968c-.627-.171-.416 3.341-.972 3.969s.111-2.68-.494-2.818c-.226-.052-.4-.059-.51 1.9a39.219 39.219 0 0 0 .173 4.221c-.093.507-2.786 15.239-2.967 17.437-.184 2.238 7.4 15.207 7.4 15.207l5.215-5.337z" fill="#e5baab"/><path data-name="路径 305" d="M91.633 112.808c-.179.4 3.125 5.017 4.8 8.517l1.494 9.745a43.559 43.559 0 0 0-4.58 10.719c6.7 3.131 14.326 2.75 21.656 1.317l-1.555-10.741 2.559-10.7 6.325-7.627-4.6-6.117-5.032 5.368-2.373.59a15.8 15.8 0 0 1-8.2-.727l-3.412-4.4z" fill="#00adb5"/><g data-name="组 636"><path data-name="路径 306" d="M107.874 130.463a3.662 3.662 0 0 1-1.021.46 9.5 9.5 0 0 1-5.354.2 3.655 3.655 0 0 1-1.052-.385 12.27 12.27 0 0 0 7.427-.272z" fill="#263238"/></g><g data-name="组 637"><path data-name="路径 307" d="M117.701 119.831c.008.012-.073.085-.24.19a3.131 3.131 0 0 1-.764.335 3.64 3.64 0 0 1-4.5-2.294 3.131 3.131 0 0 1-.178-.816.708.708 0 0 1 .013-.306 10.983 10.983 0 0 0 .318 1.063 3.667 3.667 0 0 0 4.307 2.2 11.055 11.055 0 0 0 1.044-.372z" fill="#263238"/></g><g data-name="组 638"><path data-name="路径 308" d="M121.465 114.996a6.539 6.539 0 0 1-.6-.993c-.355-.622-.851-1.477-1.43-2.4s-1.133-1.745-1.537-2.336a6.673 6.673 0 0 1-.629-.978 5.179 5.179 0 0 1 .762.882c.44.568 1.018 1.379 1.6 2.31s1.059 1.8 1.378 2.449a5.2 5.2 0 0 1 .456 1.066z" fill="#263238"/></g><g data-name="组 639"><path data-name="路径 309" d="M99.39 109.497a6.814 6.814 0 0 1-1.044.617l-2.552 1.413-2.528 1.457a6.834 6.834 0 0 1-1.067.575 5.828 5.828 0 0 1 .981-.715c.625-.412 1.505-.956 2.5-1.519s1.916-1.035 2.591-1.357a5.84 5.84 0 0 1 1.119-.471z" fill="#263238"/></g><g data-name="组 640"><path data-name="路径 310" d="M97.599 118.041a21.37 21.37 0 0 1-.7 2.219 3.477 3.477 0 0 1 .7-2.219z" fill="#263238"/></g><g data-name="组 644"><g data-name="组 641"><path data-name="路径 311" d="M109.154 113.889a56.306 56.306 0 0 1-.123-2.118 2.976 2.976 0 0 0 2.22-3.123c-.182-2.536-1.089-8.319-1.089-8.319l-4.732-1.679-4.377 4.49 2.385 12.484 4.528-.3a1.306 1.306 0 0 0 1.188-1.435z" fill="#e5baab"/></g><g data-name="组 643"><g data-name="组 642"><path data-name="路径 312" d="M108.496 107.161c.008 0 .014.046-.024.113a.348.348 0 0 1-.264.16c-.285.024-.6-.253-.748-.622a1.218 1.218 0 0 1-.085-.558.483.483 0 0 1 .215-.414.24.24 0 0 1 .188-.02.216.216 0 0 1 .113.089c.043.07.023.119.016.117s-.013-.041-.056-.083a.164.164 0 0 0-.215-.017.4.4 0 0 0-.14.339 1.182 1.182 0 0 0 .086.5c.133.33.406.579.621.577a.321.321 0 0 0 .229-.1c.042-.048.054-.086.064-.081z" fill="#d78776"/></g></g></g><g data-name="组 647"><path data-name="路径 313" d="M109.517 98.388l.094.134a4.247 4.247 0 0 0-3.007-.756 8.794 8.794 0 0 0-3.211.775q-.406.184-.809.381a3.072 3.072 0 0 0 .337-.74 2.094 2.094 0 0 0-.646-2.266 1.777 1.777 0 0 0-2.32.345 2 2 0 0 0-.012 2.4 2.246 2.246 0 0 0 1.589.851 5.772 5.772 0 0 0-.517.378 4.972 4.972 0 0 0-1.672 4.861 9.01 9.01 0 0 0 .507 1.4 4.462 4.462 0 0 1-.049 1.2 3.116 3.116 0 0 1-1.661 2.29 2.121 2.121 0 0 0-.9.522 1.081 1.081 0 0 0 0 1.117 2.515 2.515 0 0 0 1.632 1.183 2.261 2.261 0 0 0 .324.059 3.068 3.068 0 0 0 .2 1.586 4.28 4.28 0 0 0 4.265 1.96l.066-1.18.438 1.318s1.522.575 4.862-.958c1.115-.512-.52-4.571-.52-4.571a2.665 2.665 0 0 1-.566-2.192c-.7.092-1.388-1.747-1.245-2.36a1.425 1.425 0 0 1 1.309-1.165c.28.012.21 1.444.94 1.284.622-.017.387-1.154.581-1.731.422-1.259 1.279-3.021.974-4.314.978-1.14.009-2.548-.983-1.811z" fill="#263238"/><g data-name="组 645"><path data-name="路径 314" d="M98.087 102.451a1.2 1.2 0 0 1-.113-.87 2.037 2.037 0 0 1 .378-.895 1.9 1.9 0 0 1 .965-.706 5.149 5.149 0 0 1 1.16-.136 1.662 1.662 0 0 0 .841-.248 1.017 1.017 0 0 0 .445-.658c.012 0 .046.083.019.241a.931.931 0 0 1-.368.549 1.72 1.72 0 0 1-.917.328 5.97 5.97 0 0 0-1.111.145 1.961 1.961 0 0 0-1.251 1.411 3.944 3.944 0 0 0-.048.839z" fill="#263238"/></g><g data-name="组 646"><path data-name="路径 315" d="M108.719 115.108a6.744 6.744 0 0 0 .518-.894 2.935 2.935 0 0 0-.059-2.374 12 12 0 0 0-.743-1.165 3.337 3.337 0 0 1-.491-1.058 1.232 1.232 0 0 1 .107-1.054 2.273 2.273 0 0 0 .051 1.011 3.508 3.508 0 0 0 .51.982 9.848 9.848 0 0 1 .773 1.181 2.839 2.839 0 0 1 .287 1.409 2.994 2.994 0 0 1-.287 1.135 2.453 2.453 0 0 1-.443.648c-.128.132-.214.189-.223.179z" fill="#263238"/></g></g><path data-name="路径 316" d="M93.577 141.898l-9.406 68.238 9.33.284s9.536-60.064 10.164-59.713 7 25.918 6.721 27.484c-.161.9-7.358 31.552-6.845 31.433s9.02.739 9.02.739 7.331-32.245 7.225-33.025c-.257-1.9-5.076-36.271-5.076-36.271z" fill="#626d72"/><g data-name="组 648"><path data-name="路径 317" d="M107.19 151.531a5.182 5.182 0 0 1-1.165-.183 27.782 27.782 0 0 1-5.4-1.784 5.209 5.209 0 0 1-1.045-.548 6.961 6.961 0 0 1 1.109.4c.676.262 1.613.614 2.662.962s2.011.622 2.71.814a6.966 6.966 0 0 1 1.129.339z" fill="#455a64"/></g><g data-name="组 665"><g data-name="组 649"><path data-name="路径 318" d="M109.796 210.083c.063.013.061.268 0 .568s-.169.533-.231.52-.061-.268 0-.569.172-.533.231-.519z" fill="#455a64"/></g><g data-name="组 650"><path data-name="路径 319" d="M110.728 205.791a5.26 5.26 0 0 1-.466 2.147 5.257 5.257 0 0 1 .466-2.147z" fill="#455a64"/></g><g data-name="组 651"><path data-name="路径 320" d="M111.66 201.497a5.262 5.262 0 0 1-.466 2.147 5.261 5.261 0 0 1 .466-2.147z" fill="#455a64"/></g><g data-name="组 652"><path data-name="路径 321" d="M112.592 197.203a5.261 5.261 0 0 1-.466 2.147 5.261 5.261 0 0 1 .466-2.147z" fill="#455a64"/></g><g data-name="组 653"><path data-name="路径 322" d="M113.524 192.911a5.262 5.262 0 0 1-.466 2.147 5.262 5.262 0 0 1 .466-2.147z" fill="#455a64"/></g><g data-name="组 654"><path data-name="路径 323" d="M114.457 188.616a5.262 5.262 0 0 1-.466 2.147 5.262 5.262 0 0 1 .466-2.147z" fill="#455a64"/></g><g data-name="组 655"><path data-name="路径 324" d="M115.389 184.322a5.262 5.262 0 0 1-.466 2.147 5.262 5.262 0 0 1 .466-2.147z" fill="#455a64"/></g><g data-name="组 656"><path data-name="路径 325" d="M116.321 180.028a5.261 5.261 0 0 1-.466 2.147 5.263 5.263 0 0 1 .466-2.147z" fill="#455a64"/></g><g data-name="组 657"><path data-name="路径 326" d="M116.579 175.708a2.713 2.713 0 0 1 .265 1.072 7.22 7.22 0 0 1 .074.827v.026c-.056.161-.1.253-.131.247s-.033-.109-.017-.279v.026a7.28 7.28 0 0 1-.154-.816 2.7 2.7 0 0 1-.037-1.103z" fill="#455a64"/></g><g data-name="组 658"><path data-name="路径 327" d="M115.978 171.355a5.26 5.26 0 0 1 .3 2.176 5.262 5.262 0 0 1-.3-2.176z" fill="#455a64"/></g><g data-name="组 659"><path data-name="路径 328" d="M115.381 167.003a5.263 5.263 0 0 1 .3 2.177 5.263 5.263 0 0 1-.3-2.177z" fill="#455a64"/></g><g data-name="组 660"><path data-name="路径 329" d="M114.773 162.651a5.26 5.26 0 0 1 .3 2.176 5.26 5.26 0 0 1-.3-2.176z" fill="#455a64"/></g><g data-name="组 661"><path data-name="路径 330" d="M114.171 158.298a5.263 5.263 0 0 1 .3 2.176 5.263 5.263 0 0 1-.3-2.176z" fill="#455a64"/></g><g data-name="组 662"><path data-name="路径 331" d="M113.569 153.946a5.26 5.26 0 0 1 .3 2.176 5.26 5.26 0 0 1-.3-2.176z" fill="#455a64"/></g><g data-name="组 663"><path data-name="路径 332" d="M112.967 149.592a5.272 5.272 0 0 1 .3 2.177 5.252 5.252 0 0 1-.3-2.177z" fill="#455a64"/></g><g data-name="组 664"><path data-name="路径 333" d="M112.513 146.316c.063-.009.149.231.191.535s.025.559-.038.567-.149-.231-.191-.535-.025-.558.038-.567z" fill="#455a64"/></g></g><path data-name="路径 334" d="M102.6 210.893l10.383.607.547-2.972-10.346-.415z" fill="#455a64"/><path data-name="路径 335" d="M83.558 210.129l10.383.607.547-2.972-10.346-.415z" fill="#455a64"/><g data-name="组 681"><g data-name="组 666"><path data-name="路径 336" d="M101.741 151.06c-.063-.013-.063-.268 0-.568s.163-.534.226-.521.063.268 0 .568-.163.534-.226.521z" fill="#455a64"/></g><g data-name="组 667"><path data-name="路径 337" d="M100.867 155.344a5.193 5.193 0 0 1 .435-2.142 5.214 5.214 0 0 1-.435 2.142z" fill="#455a64"/></g><g data-name="组 668"><path data-name="路径 338" d="M100.01 159.632a5.221 5.221 0 0 1 .427-2.144 5.2 5.2 0 0 1-.427 2.144z" fill="#455a64"/></g><g data-name="组 669"><path data-name="路径 339" d="M99.173 163.922a5.2 5.2 0 0 1 .416-2.146 5.2 5.2 0 0 1-.416 2.146z" fill="#455a64"/></g><g data-name="组 670"><path data-name="路径 340" d="M98.358 168.219a5.2 5.2 0 0 1 .4-2.148 5.215 5.215 0 0 1-.4 2.148z" fill="#455a64"/></g><g data-name="组 671"><path data-name="路径 341" d="M97.566 172.519a5.2 5.2 0 0 1 .392-2.15 5.222 5.222 0 0 1-.392 2.15z" fill="#455a64"/></g><g data-name="组 672"><path data-name="路径 342" d="M96.801 176.823a5.216 5.216 0 0 1 .379-2.153 5.2 5.2 0 0 1-.379 2.153z" fill="#455a64"/></g><g data-name="组 673"><path data-name="路径 343" d="M96.064 181.132a5.205 5.205 0 0 1 .365-2.155 5.206 5.206 0 0 1-.365 2.155z" fill="#455a64"/></g><g data-name="组 674"><path data-name="路径 344" d="M95.356 185.445a5.221 5.221 0 0 1 .349-2.157 5.2 5.2 0 0 1-.349 2.157z" fill="#455a64"/></g><g data-name="组 675"><path data-name="路径 345" d="M94.681 189.764a5.217 5.217 0 0 1 .334-2.16 5.216 5.216 0 0 1-.334 2.16z" fill="#455a64"/></g><g data-name="组 676"><path data-name="路径 346" d="M94.039 194.087a5.212 5.212 0 0 1 .317-2.162 5.21 5.21 0 0 1-.317 2.162z" fill="#455a64"/></g><g data-name="组 677"><path data-name="路径 347" d="M93.432 198.417a5.218 5.218 0 0 1 .3-2.165 5.2 5.2 0 0 1-.3 2.165z" fill="#455a64"/></g><g data-name="组 678"><path data-name="路径 348" d="M92.849 202.747a5.225 5.225 0 0 1 .283-2.168 5.2 5.2 0 0 1-.283 2.168z" fill="#455a64"/></g><g data-name="组 679"><path data-name="路径 349" d="M92.315 207.089a5.22 5.22 0 0 1 .265-2.17 5.2 5.2 0 0 1-.265 2.17z" fill="#455a64"/></g><g data-name="组 680"><path data-name="路径 350" d="M91.933 210.368c-.064-.008-.087-.261-.052-.566s.115-.547.179-.54.087.261.052.566-.117.547-.179.54z" fill="#455a64"/></g></g><g data-name="组 682"><path data-name="路径 351" d="M116.539 178.057a113.345 113.345 0 0 1-5.4-.346 18.452 18.452 0 0 1 5.4.346z" fill="#455a64"/></g><g data-name="组 683"><path data-name="路径 352" d="M116.03 176.927a12.966 12.966 0 0 1-4.555.169 87.048 87.048 0 0 1 4.555-.169z" fill="#455a64"/></g><g data-name="组 684"><path data-name="路径 353" d="M92.474 180.178a19.346 19.346 0 0 1-2.163-3.627 19.241 19.241 0 0 1 2.163 3.627z" fill="#455a64"/></g><g data-name="组 685"><path data-name="路径 354" d="M114.997 143.639a.789.789 0 0 1-.015.312 5.258 5.258 0 0 1-.181.83 2.665 2.665 0 0 1-.629 1.115 1.957 1.957 0 0 1-1.473.546 4.275 4.275 0 0 1-1.518-.361 3.825 3.825 0 0 1-1.087-.661 1.517 1.517 0 0 1-.593-.994 2.966 2.966 0 0 0 .7.869 4.038 4.038 0 0 0 1.061.588 4.36 4.36 0 0 0 1.442.328 1.784 1.784 0 0 0 1.319-.467 2.666 2.666 0 0 0 .622-1.015c.235-.66.313-1.1.352-1.09z" fill="#455a64"/></g><g data-name="组 686"><path data-name="路径 355" d="M101.967 149.971c-.013.01-.077-.053-.189-.163a3.887 3.887 0 0 1-.494-.468 3.054 3.054 0 0 1-.567-.864 4.6 4.6 0 0 1-.055-1.255c.049-.874.149-1.655.225-2.22a3.754 3.754 0 0 1 .172-.909 27.353 27.353 0 0 1-.166 3.14 5.158 5.158 0 0 0 .028 1.185 3.411 3.411 0 0 0 .491.822c.15.234.335.366.432.509s.135.213.123.223z" fill="#455a64"/></g></g></g></g></g></svg>