<svg width="616" height="616" viewBox="0 0 616 616" xmlns="http://www.w3.org/2000/svg"><defs><linearGradient x1="-580.923%" y1="-580.411%" x2="175.364%" y2="175.263%" id="a"><stop stop-color="#FFD521" offset="0%"/><stop stop-color="#FFD521" offset="5%"/><stop stop-color="#F50000" offset="50.112%"/><stop stop-color="#B900B4" offset="95%"/><stop stop-color="#B900B4" offset="95.008%"/><stop stop-color="#B900B4" offset="100%"/></linearGradient><linearGradient x1=".902%" y1=".909%" x2="91.746%" y2="91.753%" id="b"><stop stop-color="#FFD521" offset="0%"/><stop stop-color="#FFD521" offset="5%"/><stop stop-color="#F50000" offset="50.112%"/><stop stop-color="#B900B4" offset="95%"/><stop stop-color="#B900B4" offset="95.008%"/><stop stop-color="#B900B4" offset="100%"/></linearGradient><linearGradient x1="-45.577%" y1="-45.602%" x2="131.264%" y2="131.281%" id="c"><stop stop-color="#FFD521" offset="0%"/><stop stop-color="#FFD521" offset="5%"/><stop stop-color="#F50000" offset="50.112%"/><stop stop-color="#B900B4" offset="95%"/><stop stop-color="#B900B4" offset="95.008%"/><stop stop-color="#B900B4" offset="100%"/></linearGradient></defs><g fill="none" fill-rule="evenodd"><path d="M508.88 143.381c0 20.453-16.576 36.967-36.952 36.967-20.377 0-36.967-16.514-36.967-36.967 0-20.376 16.59-36.89 36.967-36.89 20.376 0 36.951 16.514 36.951 36.89" fill="url(#a)" transform="matrix(1 0 0 -1 0 286.838)"/><path d="M558.117 183.373c-1.369-30.002-6.387-46.303-10.553-57.13-5.596-14.355-12.271-24.619-23.098-35.385-10.706-10.766-20.97-17.426-35.325-22.961-10.826-4.228-27.189-9.26-57.19-10.69-32.435-1.43-42.046-1.734-124.297-1.734-82.174 0-91.862.304-124.297 1.733-30.001 1.43-46.287 6.463-57.115 10.69-14.43 5.536-24.618 12.196-35.384 22.962-10.842 10.766-17.518 21.03-23.037 35.386-4.168 10.826-9.261 27.127-10.554 57.13-1.581 32.434-1.87 42.197-1.87 124.28 0 82.251.289 91.938 1.87 124.373 1.293 30.002 6.386 46.288 10.554 57.206 5.52 14.34 12.195 24.543 23.037 35.31 10.766 10.75 20.954 17.426 35.384 23.021 10.828 4.243 27.114 9.2 57.115 10.63 32.435 1.43 42.123 1.794 124.297 1.794 82.251 0 91.862-.365 124.297-1.795 30.001-1.429 46.364-6.386 57.19-10.629 14.355-5.595 24.62-12.271 35.325-23.022 10.827-10.766 17.502-20.97 23.098-35.309 4.166-10.918 9.184-27.204 10.553-57.206 1.505-32.435 1.87-42.122 1.87-124.373 0-82.083-.365-91.846-1.87-124.28zm55.397 251.178c-1.505 32.785-6.676 55.184-14.355 74.693-7.816 20.24-18.293 37.393-35.446 54.546-17.076 17.076-34.229 27.553-54.469 35.46-19.585 7.604-41.909 12.835-74.709 14.264-32.8 1.582-43.276 1.87-126.88 1.87-83.53 0-94.082-.288-126.882-1.87-32.725-1.429-55.032-6.66-74.709-14.264-20.164-7.907-37.316-18.384-54.393-35.46-17.152-17.153-27.63-34.306-35.522-54.546-7.603-19.509-12.773-41.908-14.355-74.693C.365 401.751 0 391.26 0 307.654c0-83.528.365-94.005 1.794-126.805 1.582-32.724 6.752-55.107 14.355-74.709 7.892-20.163 18.37-37.392 35.522-54.469 17.077-17.076 34.23-27.63 54.393-35.522 19.677-7.602 41.984-12.773 74.709-14.279C213.573.365 224.126 0 307.654 0c83.605 0 94.081.365 126.881 1.87 32.8 1.506 55.124 6.677 74.71 14.28 20.24 7.891 37.392 18.445 54.468 35.521 17.153 17.077 27.63 34.306 35.446 54.47 7.679 19.6 12.85 41.984 14.355 74.708 1.506 32.8 1.87 43.277 1.87 126.805 0 83.605-.364 94.097-1.87 126.897z" fill="url(#b)" fill-rule="nonzero" transform="matrix(1 0 0 -1 0 615.385)"/><path d="M307.654 205.103c-56.613 0-102.551 45.863-102.551 102.476 0 56.704 45.938 102.626 102.551 102.626 56.63 0 102.628-45.922 102.628-102.626 0-56.613-45.999-102.476-102.628-102.476zm0 260.575c-87.269 0-157.947-70.83-157.947-158.1 0-87.193 70.678-157.948 157.947-157.948 87.27 0 158.024 70.755 158.024 157.949 0 87.269-70.755 158.1-158.024 158.1z" fill="url(#c)" fill-rule="nonzero" transform="matrix(1 0 0 -1 0 615.308)"/></g></svg>