<svg width="18" height="18" viewBox="0 0 18 18" xmlns="http://www.w3.org/2000/svg"><path d="M5.625 5.781c-.267.524-.466.923-.597 1.196l-.119.257.001 9.176a1 1 0 0 0 1 1h8.147c1.373 0 2.552-1.008 2.79-2.395L17.98 8.38c.012-.074.019-.15.019-.225 0-.723-.57-1.302-1.268-1.302H9.6l1.47-4.136c.29-.768-.147-1.568-.842-1.976C9.94.572 9.273.487 8.95.572c-.321.086-.732.265-.897.553a410.86 410.86 0 0 0-2.429 4.656zm-2.852 1.81H.5a.5.5 0 0 0-.5.5v8.819a.5.5 0 0 0 .5.5h2.273a.5.5 0 0 0 .5-.5V8.092a.5.5 0 0 0-.5-.5z" fill="#FF5656" fill-rule="nonzero"/></svg>