<svg width="20" height="20" viewBox="0 0 20 20" xmlns="http://www.w3.org/2000/svg"><path d="M7.897 2.207C8.6.898 10.173.448 11.4 1.207c1.212.75 1.733 2.325 1.233 3.718l-.567 1.578h4.477c1.36 0 2.469 1.13 2.552 2.55l.005.172c0 .155-.012.31-.037.463l-.96 5.917c-.322 1.983-1.935 3.434-3.824 3.434H2.385c-.822 0-1.485-.7-1.485-1.56V8.722c0-.86.663-1.559 1.485-1.559h3.072l.452-.952 1.988-4.004zm-.753 5.109c-.226.45-.394.792-.505 1.026a8.208 8.208 0 0 0-.1.22v8.232a.5.5 0 0 0 .5.5h7.24c1.162 0 2.16-.865 2.36-2.055l.96-5.693c.01-.064.016-.129.016-.194 0-.62-.482-1.117-1.072-1.117H9.92l1.324-3.549c.246-.659-.009-1.404-.597-1.754a1.04 1.04 0 0 0-.804-.112 1.054 1.054 0 0 0-.644.5 354.358 354.358 0 0 0-2.055 3.996zm-2.49 1.469h-1.77a.5.5 0 0 0-.5.5v7.51a.5.5 0 0 0 .5.5h1.77a.5.5 0 0 0 .5-.5v-7.51a.5.5 0 0 0-.5-.5z" fill="#1B2020" fill-rule="nonzero" fill-opacity=".3"/></svg>