<svg xmlns="http://www.w3.org/2000/svg" xmlns:xlink="http://www.w3.org/1999/xlink" width="107.345" height="22.25" viewBox="0 0 107.345 22.25">
  <defs>
    <linearGradient id="linear-gradient" y1="0.5" x2="1" y2="0.5" gradientUnits="objectBoundingBox">
      <stop offset="0" stop-color="#00d3ce"/>
      <stop offset="0.366" stop-color="#00c9c7"/>
      <stop offset="0.973" stop-color="#00b0b6"/>
      <stop offset="1" stop-color="#00afb6"/>
    </linearGradient>
  </defs>
  <g id="组_1131" data-name="组 1131" transform="translate(-113.583 -21.23)">
    <path id="路径_524" data-name="路径 524" d="M6.313-1.719a2.749,2.749,0,0,0,2.27-1.055,4.713,4.713,0,0,0,.84-3,4.716,4.716,0,0,0-.84-3,2.745,2.745,0,0,0-2.27-1.059A2.781,2.781,0,0,0,4.031-8.773a4.667,4.667,0,0,0-.852,3,4.667,4.667,0,0,0,.852,3A2.781,2.781,0,0,0,6.313-1.719Zm5.516-4.055a6.228,6.228,0,0,1-1.742,4.75A5.021,5.021,0,0,1,6.313.32,5.021,5.021,0,0,1,2.539-1.023a6.212,6.212,0,0,1-1.75-4.75,6.09,6.09,0,0,1,1.75-4.75,5.021,5.021,0,0,1,3.773-1.344,5.021,5.021,0,0,1,3.773,1.344A6.105,6.105,0,0,1,11.828-5.773Zm10.2-5.742v2.039H18.586V0H16.164V-9.477H12.7v-2.039Zm6.219,9.8a2.749,2.749,0,0,0,2.27-1.055,4.713,4.713,0,0,0,.84-3,4.716,4.716,0,0,0-.84-3,2.745,2.745,0,0,0-2.27-1.059,2.781,2.781,0,0,0-2.281,1.055,4.667,4.667,0,0,0-.852,3,4.667,4.667,0,0,0,.852,3A2.781,2.781,0,0,0,28.25-1.719Zm5.516-4.055a6.228,6.228,0,0,1-1.742,4.75A5.021,5.021,0,0,1,28.25.32a5.021,5.021,0,0,1-3.773-1.344,6.212,6.212,0,0,1-1.75-4.75,6.09,6.09,0,0,1,1.75-4.75,5.021,5.021,0,0,1,3.773-1.344,5.021,5.021,0,0,1,3.773,1.344A6.105,6.105,0,0,1,33.766-5.773ZM35.6-11.516h2.406V-2.07h5.7V0H35.6Zm14.867,9.8a2.749,2.749,0,0,0,2.27-1.055,4.713,4.713,0,0,0,.84-3,4.716,4.716,0,0,0-.84-3,2.745,2.745,0,0,0-2.27-1.059,2.781,2.781,0,0,0-2.281,1.055,4.667,4.667,0,0,0-.852,3,4.667,4.667,0,0,0,.852,3A2.781,2.781,0,0,0,50.469-1.719Zm5.516-4.055a6.228,6.228,0,0,1-1.742,4.75A5.021,5.021,0,0,1,50.469.32,5.021,5.021,0,0,1,46.7-1.023a6.212,6.212,0,0,1-1.75-4.75,6.09,6.09,0,0,1,1.75-4.75,5.021,5.021,0,0,1,3.773-1.344,5.021,5.021,0,0,1,3.773,1.344A6.105,6.105,0,0,1,55.984-5.773Zm1.875-5.742h2.367v4.742l4.445-4.742h3.109L63.063-6.773,68.023,0H64.93L61.375-5.031l-1.148,1.18V0H57.859ZM72.523-4.352h2.922L74.008-8.883Zm.148-7.164h2.719L79.469,0H76.859l-.742-2.367H71.875L71.078,0H68.563Z" transform="translate(141.458 38.115)"/>
    <path id="路径_490" data-name="路径 490" d="M1425.311,251.912l.044-.071q.211-.337.4-.69l.017-.032q.083-.157.161-.317v0c.053-.108.1-.217.153-.327l.019-.044q.061-.139.119-.28l.026-.063q.065-.163.126-.328l0-.005c.038-.105.074-.211.11-.317l.027-.083q.044-.137.085-.275c.006-.02.012-.04.017-.06q.047-.164.089-.331l.019-.078q.032-.132.062-.266l.021-.094c.023-.112.046-.225.066-.338,0-.007,0-.014,0-.021.019-.107.036-.214.052-.322,0-.034.01-.068.014-.1q.019-.136.034-.273c0-.027.006-.054.01-.081q.018-.172.03-.345c0-.029,0-.058.005-.087q.009-.137.015-.274l0-.105c0-.115.006-.23.006-.346v-.009a11.125,11.125,0,0,0-11.125-11.125h0a11.267,11.267,0,0,0-1.138.057,11.11,11.11,0,0,0-9.988,11.068s0,.006,0,.009c0,.117,0,.233.006.349q0,.052,0,.1.005.142.015.283c0,.027,0,.054.005.081q.013.175.031.348c0,.029.007.058.01.087q.015.137.034.273c0,.033.009.066.014.1.017.114.035.228.055.342l.007.037c.019.1.039.2.06.3.007.034.015.068.022.1q.03.135.063.269l.018.073q.042.163.088.324l.028.1q.036.121.075.241l.033.1q.052.155.108.309l.028.075c.03.081.061.161.094.241l.046.113q.047.113.1.225l.038.087q.065.143.133.283l.058.117q.047.094.1.187l.062.118q.072.133.147.264c.022.038.045.075.067.113.034.057.068.114.1.17l.041.068.039.06q.053.083.107.165l.019.029.006.01q.092.138.188.274l.007.01h0l0,0a11.126,11.126,0,0,0,18.176-.051l.009-.013.012-.018q.086-.122.168-.247l.033-.048.035-.054.021-.032Zm-7.968-7.651-.174-.017-.112-.01c-.112-.01-.221-.019-.33-.026l-.123-.009-.151-.009-.038,0h-.018l-.128-.006-.1,0-.1,0h-.017l-.162,0-.091,0-.089,0-.145,0h-.123l-.294,0-.283.008-.273.012-.1.005-.037,0h0l-.056,0-.03,0-.029,0-.133.009-.245.022-.234.025-.113.014-.218.029c-.364.052-.679.113-.946.175a5.893,5.893,0,0,0-1.076.336,1.887,1.887,0,0,1-1.887-1.887c0-.024,0-.049,0-.073s0-.074.008-.11.006-.06.01-.09.007-.042.011-.063,0-.026.008-.04.006-.03.01-.046a.206.206,0,0,1,.006-.027c0-.018.009-.036.014-.053s.008-.031.013-.047.017-.057.027-.084l.022-.06.021-.051a.3.3,0,0,0,.012-.028c.007-.016.015-.032.022-.047s.02-.041.03-.061.012-.023.019-.034l.031-.058a7.311,7.311,0,0,1,12.514.367,1.888,1.888,0,0,1-2.6,2.31h0l-.244-.05-.211-.041-.08-.015-.031-.006-.1-.018-.122-.022-.122-.021-.077-.013-.068-.011-.093-.016-.12-.019-.14-.021-.269-.037-.172-.023-.164-.02-.082-.009-.125-.014Zm-7.563,5.724-.047-.1h-.019l-.057-.09-.039-.064-.005-.009.12.163a1.856,1.856,0,0,1-.222-.62,1.915,1.915,0,0,1-.026-.314,1.888,1.888,0,0,1,1.887-1.888c.809-.142,1.577-.241,2.3-.308l.355-.03h0a3.085,3.085,0,0,1,.242,1.025,12.724,12.724,0,0,1-.071,2.433c-.027.243-.056.464-.082.649-.05.353-.09.576-.09.576a10.624,10.624,0,0,1-.431,1.512A7.368,7.368,0,0,1,1409.78,249.985Zm8.552,2.9c-.094-.112-.53-1.482-.53-1.482s-.04-.223-.09-.576c-.012-.089-.025-.186-.039-.29,0-.039-.01-.079-.015-.119s-.012-.1-.017-.15l-.014-.123c-.009-.077-.017-.156-.025-.238,0-.041-.008-.083-.012-.125-.012-.133-.023-.271-.033-.411,0-.072-.009-.146-.012-.219s-.006-.128-.009-.192c0-.03,0-.061,0-.092s0-.033,0-.049,0-.021,0-.032c0-.026,0-.053,0-.08,0-.1,0-.194,0-.29,0-.027,0-.054,0-.081s0-.035,0-.053,0-.043,0-.064,0-.028,0-.041l0-.067c0-.042,0-.084.006-.126,0-.013,0-.026,0-.039,0-.032,0-.066.007-.1l.009-.107s0-.005,0-.009c0-.02,0-.041.006-.061s0-.017,0-.025l.007-.057c0-.029.007-.057.011-.084s.008-.055.012-.082a0,0,0,0,1,0,0,.227.227,0,0,1,0-.025c0-.026.008-.052.014-.077l.009-.05,0-.021c.006-.032.013-.064.021-.094,0-.014.006-.027.01-.04h0l.014-.054c.009-.03.017-.06.026-.088s.01-.029.015-.044a.15.15,0,0,1,.007-.021.3.3,0,0,1,.011-.031.008.008,0,0,0,0,0l.023-.06c.013-.031.026-.06.04-.089h0l-.046-.037a15.793,15.793,0,0,1,2.722.375,1.888,1.888,0,0,1,1.887,1.888c0,.029,0,.058,0,.087,0,.009,0,.019,0,.028a1.471,1.471,0,0,1-.016.153.363.363,0,0,1-.005.041.433.433,0,0,1-.009.044.01.01,0,0,1,0,.008.12.12,0,0,1,0,.024.57.57,0,0,1-.015.064.318.318,0,0,1-.009.037,1.457,1.457,0,0,1-.055.173h0c-.057.1-.115.194-.176.288-.046.073-.094.145-.143.216-.022.036-.041.074-.06.112s-.03.064-.044.1h0A7.369,7.369,0,0,1,1418.332,252.889Z" transform="translate(-1291.212 -213.59)" fill="url(#linear-gradient)"/>
  </g>
</svg>
