<svg xmlns="http://www.w3.org/2000/svg" width="120.164" height="52.092" viewBox="0 0 120.164 52.092"><g transform="translate(-120.381 -452.12)"><path d="M35.26,31.842V7.918A3.428,3.428,0,0,0,31.842,4.5H7.918A3.428,3.428,0,0,0,4.5,7.918V31.842A3.428,3.428,0,0,0,7.918,35.26H31.842A3.428,3.428,0,0,0,35.26,31.842ZM13.9,22.443l4.272,5.144,5.981-7.707,7.69,10.253H7.918Z" transform="translate(160.62 447.62)" fill="#fafafa"/><path d="M1.421-6.782a.631.631,0,0,0-.474.488,1.335,1.335,0,0,0-.068.415.3.3,0,0,0,0,.042q0,.017.007.076h.532V-4.7H.381v-.981A1.851,1.851,0,0,1,.669-6.792a1.069,1.069,0,0,1,.752-.449Zm1.646,0a.547.547,0,0,0-.408.3,1.238,1.238,0,0,0-.139.6q0,.029,0,.059a.333.333,0,0,0,.012.063h.532V-4.7H2.021v-.981a2.166,2.166,0,0,1,.244-1.038.986.986,0,0,1,.8-.525Zm1.025-.391h.947v3.5l3.5-3.5H9.878L6.895-4.282,9.961,0H8.7L6.187-3.6,5.039-2.5V0H4.092Zm6.577,0h.879V0h-.879Zm2.2,1.968h.894V0h-.894Zm0-1.968h.894v1h-.894Zm2.2,0h.845v4.165l2.256-2.222h1.123l-2,1.958L19.4,0H18.281L16.65-2.637l-.737.674V0h-.845Zm6.4,2.085a.629.629,0,0,0,.483-.537A1.474,1.474,0,0,0,22-6.108h-.532V-7.173H22.51v.981a2.2,2.2,0,0,1-.239,1.038.98.98,0,0,1-.806.525Zm-1.641,0a.638.638,0,0,0,.488-.537,1.375,1.375,0,0,0,.044-.483h-.532V-7.173h1.04v.981a2.173,2.173,0,0,1-.239,1.033,1,1,0,0,1-.8.53Z" transform="translate(120 502)" fill="#00adb5" opacity="0.422"/><path d="M1.523-5.229v3.472A1.464,1.464,0,0,0,1.65-1.1a.886.886,0,0,0,.874.469,1.235,1.235,0,0,0,1.25-.82,3.255,3.255,0,0,0,.181-1.206V-5.229h.879V0H4l.01-.771a1.773,1.773,0,0,1-.425.5,1.869,1.869,0,0,1-1.221.41A1.575,1.575,0,0,1,.845-.605a2.225,2.225,0,0,1-.22-1.069V-5.229Zm4.683,0h.835v.742a2.342,2.342,0,0,1,.786-.659,2.1,2.1,0,0,1,.923-.2,1.522,1.522,0,0,1,1.5.776,2.757,2.757,0,0,1,.215,1.216V0H9.575V-3.3a1.785,1.785,0,0,0-.142-.771.858.858,0,0,0-.85-.488,1.73,1.73,0,0,0-.513.063,1.32,1.32,0,0,0-.635.43,1.294,1.294,0,0,0-.286.535,3.6,3.6,0,0,0-.066.789V0H6.206Zm5.737-1.46h.889v1.46h.835v.718h-.835V-1.1a.369.369,0,0,0,.186.366.789.789,0,0,0,.342.054l.137,0q.073,0,.171-.012V0a1.962,1.962,0,0,1-.315.063A2.994,2.994,0,0,1,13,.083a.954.954,0,0,1-.835-.315,1.4,1.4,0,0,1-.22-.818V-4.512h-.708v-.718h.708Zm3.481,1.46v3.472a1.464,1.464,0,0,0,.127.654.886.886,0,0,0,.874.469,1.235,1.235,0,0,0,1.25-.82,3.255,3.255,0,0,0,.181-1.206V-5.229h.879V0h-.83l.01-.771a1.773,1.773,0,0,1-.425.5,1.869,1.869,0,0,1-1.221.41,1.575,1.575,0,0,1-1.523-.747,2.225,2.225,0,0,1-.22-1.069V-5.229Zm4.663-1.943h.845v4.165l2.256-2.222h1.123l-2,1.958L24.424,0H23.3L21.67-2.637l-.737.674V0h-.845Zm7.8,1.943h.869v.742a2.921,2.921,0,0,1,.566-.562,1.7,1.7,0,0,1,.986-.3,1.552,1.552,0,0,1,1.006.308,1.608,1.608,0,0,1,.391.518,1.9,1.9,0,0,1,.688-.623,1.92,1.92,0,0,1,.889-.2,1.453,1.453,0,0,1,1.436.762,2.49,2.49,0,0,1,.205,1.1V0h-.913V-3.633a.846.846,0,0,0-.261-.718,1.034,1.034,0,0,0-.637-.2,1.265,1.265,0,0,0-.891.347,1.522,1.522,0,0,0-.374,1.157V0h-.894V-3.413a1.773,1.773,0,0,0-.127-.776.774.774,0,0,0-.747-.366,1.289,1.289,0,0,0-.906.386,1.891,1.891,0,0,0-.408,1.4V0h-.879Zm10.508-.117a2.385,2.385,0,0,1,1.079.261,1.99,1.99,0,0,1,.8.676,2.333,2.333,0,0,1,.352.923A6.038,6.038,0,0,1,40.7-2.334H36.865a2.237,2.237,0,0,0,.376,1.277,1.259,1.259,0,0,0,1.089.481,1.408,1.408,0,0,0,1.1-.454,1.531,1.531,0,0,0,.332-.61h.864A1.82,1.82,0,0,1,40.4-1a2.284,2.284,0,0,1-.432.579,2.048,2.048,0,0,1-.991.527,3.011,3.011,0,0,1-.718.078A2.2,2.2,0,0,1,36.6-.525a2.764,2.764,0,0,1-.679-1.99,3.006,3.006,0,0,1,.684-2.046A2.255,2.255,0,0,1,38.394-5.347Zm1.4,2.314a2.277,2.277,0,0,0-.249-.913A1.276,1.276,0,0,0,38.34-4.58a1.337,1.337,0,0,0-1.016.437,1.651,1.651,0,0,0-.435,1.111ZM41.8-7.173h.879V0H41.8ZM44-5.205h.894V0H44Zm0-1.968h.894v1H44ZM46.221-7.2H47.1v2.676a2.538,2.538,0,0,1,.562-.557,1.894,1.894,0,0,1,1.06-.278,1.567,1.567,0,0,1,1.543.8,2.714,2.714,0,0,1,.22,1.206V0h-.9V-3.3a1.843,1.843,0,0,0-.146-.845.936.936,0,0,0-.9-.43,1.5,1.5,0,0,0-.991.376A1.808,1.808,0,0,0,47.1-2.773V0h-.879Zm6.235,5.806a.724.724,0,0,0,.278.6,1.032,1.032,0,0,0,.659.22,2,2,0,0,0,.9-.215,1.209,1.209,0,0,0,.732-1.167v-.708a1.5,1.5,0,0,1-.415.171,3.537,3.537,0,0,1-.5.1l-.532.068a2.036,2.036,0,0,0-.718.2A.78.78,0,0,0,52.456-1.392Zm2.129-1.777a.477.477,0,0,0,.405-.254.773.773,0,0,0,.059-.337.714.714,0,0,0-.32-.652,1.716,1.716,0,0,0-.916-.2,1.163,1.163,0,0,0-.977.371,1.221,1.221,0,0,0-.21.61h-.82a1.51,1.51,0,0,1,.627-1.345,2.576,2.576,0,0,1,1.4-.378,2.846,2.846,0,0,1,1.5.352A1.193,1.193,0,0,1,55.9-3.911V-.9a.386.386,0,0,0,.056.22A.271.271,0,0,0,56.2-.6q.059,0,.132-.007t.156-.022V.024A2.448,2.448,0,0,1,56.172.1a2.284,2.284,0,0,1-.293.015A.723.723,0,0,1,55.22-.21a1.244,1.244,0,0,1-.151-.483,2.236,2.236,0,0,1-.771.61,2.386,2.386,0,0,1-1.108.259A1.648,1.648,0,0,1,52-.266a1.468,1.468,0,0,1-.461-1.106A1.424,1.424,0,0,1,51.992-2.5a2.161,2.161,0,0,1,1.191-.493ZM57.52-6.689h.889v1.46h.835v.718h-.835V-1.1a.369.369,0,0,0,.186.366.789.789,0,0,0,.342.054l.137,0q.073,0,.171-.012V0a1.962,1.962,0,0,1-.315.063,2.994,2.994,0,0,1-.354.02.954.954,0,0,1-.835-.315,1.4,1.4,0,0,1-.22-.818V-4.512h-.708v-.718h.708Zm7.227,1.367a1.906,1.906,0,0,1,1.074.3,2.413,2.413,0,0,1,.508.5v-.659h.811V-.425a3.507,3.507,0,0,1-.293,1.572A2.1,2.1,0,0,1,64.78,2.212a2.534,2.534,0,0,1-1.421-.378A1.476,1.476,0,0,1,62.715.649h.894a.994.994,0,0,0,.254.542,1.3,1.3,0,0,0,.938.293A1.29,1.29,0,0,0,66.123.771a4.015,4.015,0,0,0,.171-1.5,1.724,1.724,0,0,1-.635.6,2.112,2.112,0,0,1-.981.2,2.1,2.1,0,0,1-1.487-.6,2.652,2.652,0,0,1-.637-1.995A3.021,3.021,0,0,1,63.2-4.585,1.985,1.985,0,0,1,64.746-5.322Zm1.582,2.686a2.18,2.18,0,0,0-.4-1.44,1.283,1.283,0,0,0-1.021-.469,1.26,1.26,0,0,0-1.27.869,3.408,3.408,0,0,0-.181,1.216,2.158,2.158,0,0,0,.359,1.345,1.159,1.159,0,0,0,.964.461,1.354,1.354,0,0,0,1.333-.854A2.756,2.756,0,0,0,66.328-2.637Zm2.808,1.245a.724.724,0,0,0,.278.6,1.032,1.032,0,0,0,.659.22,2,2,0,0,0,.9-.215A1.209,1.209,0,0,0,71.7-1.953v-.708a1.5,1.5,0,0,1-.415.171,3.537,3.537,0,0,1-.5.1l-.532.068a2.036,2.036,0,0,0-.718.2A.78.78,0,0,0,69.136-1.392Zm2.129-1.777a.477.477,0,0,0,.405-.254.773.773,0,0,0,.059-.337.714.714,0,0,0-.32-.652,1.716,1.716,0,0,0-.916-.2,1.163,1.163,0,0,0-.977.371,1.221,1.221,0,0,0-.21.61h-.82a1.51,1.51,0,0,1,.627-1.345,2.576,2.576,0,0,1,1.4-.378,2.846,2.846,0,0,1,1.5.352,1.193,1.193,0,0,1,.571,1.094V-.9a.386.386,0,0,0,.056.22.271.271,0,0,0,.237.083q.059,0,.132-.007t.156-.022V.024A2.448,2.448,0,0,1,72.852.1a2.284,2.284,0,0,1-.293.015A.723.723,0,0,1,71.9-.21a1.244,1.244,0,0,1-.151-.483,2.236,2.236,0,0,1-.771.61,2.386,2.386,0,0,1-1.108.259,1.648,1.648,0,0,1-1.189-.442,1.468,1.468,0,0,1-.461-1.106A1.424,1.424,0,0,1,68.672-2.5a2.161,2.161,0,0,1,1.191-.493Zm2.759-2.061h.869v.742a2.921,2.921,0,0,1,.566-.562,1.7,1.7,0,0,1,.986-.3,1.552,1.552,0,0,1,1.006.308,1.608,1.608,0,0,1,.391.518,1.9,1.9,0,0,1,.688-.623,1.92,1.92,0,0,1,.889-.2,1.453,1.453,0,0,1,1.436.762,2.49,2.49,0,0,1,.205,1.1V0h-.913V-3.633a.846.846,0,0,0-.261-.718,1.034,1.034,0,0,0-.637-.2,1.265,1.265,0,0,0-.891.347,1.522,1.522,0,0,0-.374,1.157V0H77.09V-3.413a1.773,1.773,0,0,0-.127-.776.774.774,0,0,0-.747-.366,1.289,1.289,0,0,0-.906.386,1.891,1.891,0,0,0-.408,1.4V0h-.879ZM82.285-7.2h.854v2.6a1.949,1.949,0,0,1,.688-.574,1.936,1.936,0,0,1,.869-.2,2.037,2.037,0,0,1,1.584.671,2.86,2.86,0,0,1,.608,1.98,3.4,3.4,0,0,1-.6,2.061,1.948,1.948,0,0,1-1.665.82,1.706,1.706,0,0,1-1.006-.288A2.429,2.429,0,0,1,83.1-.669V0h-.811ZM84.57-.61a1.174,1.174,0,0,0,1.067-.566,2.789,2.789,0,0,0,.354-1.494,2.452,2.452,0,0,0-.354-1.367,1.166,1.166,0,0,0-1.042-.542,1.454,1.454,0,0,0-1.052.444,2,2,0,0,0-.452,1.465,3.237,3.237,0,0,0,.186,1.2A1.282,1.282,0,0,0,84.57-.61Zm4.019-.781a.724.724,0,0,0,.278.6,1.032,1.032,0,0,0,.659.22,2,2,0,0,0,.9-.215,1.209,1.209,0,0,0,.732-1.167v-.708a1.5,1.5,0,0,1-.415.171,3.537,3.537,0,0,1-.5.1l-.532.068a2.036,2.036,0,0,0-.718.2A.78.78,0,0,0,88.589-1.392Zm2.129-1.777a.477.477,0,0,0,.405-.254.773.773,0,0,0,.059-.337.714.714,0,0,0-.32-.652,1.716,1.716,0,0,0-.916-.2,1.163,1.163,0,0,0-.977.371,1.221,1.221,0,0,0-.21.61h-.82a1.51,1.51,0,0,1,.627-1.345,2.576,2.576,0,0,1,1.4-.378,2.846,2.846,0,0,1,1.5.352,1.193,1.193,0,0,1,.571,1.094V-.9a.386.386,0,0,0,.056.22.271.271,0,0,0,.237.083q.059,0,.132-.007t.156-.022V.024A2.448,2.448,0,0,1,92.3.1a2.284,2.284,0,0,1-.293.015.723.723,0,0,1-.659-.322A1.244,1.244,0,0,1,91.2-.693a2.236,2.236,0,0,1-.771.61,2.386,2.386,0,0,1-1.108.259,1.648,1.648,0,0,1-1.189-.442,1.468,1.468,0,0,1-.461-1.106A1.424,1.424,0,0,1,88.125-2.5a2.161,2.161,0,0,1,1.191-.493ZM93.5-5.229h.835v.9a2,2,0,0,1,.5-.642,1.3,1.3,0,0,1,.923-.378l.083,0,.2.02v.928a1.313,1.313,0,0,0-.144-.02q-.066,0-.144,0a1.254,1.254,0,0,0-1.021.427,1.491,1.491,0,0,0-.356.984V0H93.5Z" transform="translate(144.5 502)" opacity="0.422"/></g></svg>