<svg width="30" height="30" viewBox="0 0 30 30" xmlns="http://www.w3.org/2000/svg"><path d="M15 0C6.719 0 0 6.715 0 15c0 6.141 3.694 11.419 8.98 13.739-.042-1.047-.006-2.305.26-3.445l1.93-8.173s-.479-.957-.479-2.375c0-2.222 1.29-3.882 2.894-3.882 1.362 0 2.022 1.025 2.022 2.253 0 1.37-.874 3.422-1.324 5.322-.375 1.592.797 2.89 2.367 2.89 2.843 0 4.756-3.65 4.756-7.975 0-3.288-2.213-5.748-6.241-5.748-4.55 0-7.384 3.393-7.384 7.181 0 1.31.384 2.23.988 2.943.278.33.316.46.215.837-.07.274-.237.94-.305 1.204-.1.379-.408.517-.75.375-2.098-.855-3.073-3.15-3.073-5.731 0-4.26 3.594-9.371 10.72-9.371 5.728 0 9.498 4.146 9.498 8.593 0 5.886-3.272 10.28-8.095 10.28-1.618 0-3.143-.875-3.664-1.867 0 0-.872 3.455-1.055 4.122-.317 1.155-.94 2.313-1.51 3.213A15.02 15.02 0 0 0 15 30c8.285 0 15-6.715 15-15S23.285 0 15 0" fill="#E90017" fill-rule="nonzero"/></svg>