<?xml version="1.0" encoding="UTF-8"?>
<svg width="90px" height="68px" viewBox="0 0 90 68" version="1.1" xmlns="http://www.w3.org/2000/svg" xmlns:xlink="http://www.w3.org/1999/xlink">
    <!-- Generator: Sketch 60.1 (88133) - https://sketch.com -->
    <title>图片损坏-4:3</title>
    <desc>Created with Sketch.</desc>
    <g id="1.3.1" stroke="none" stroke-width="1" fill="none" fill-rule="evenodd">
        <g id="搜索结果备份-3" transform="translate(-254.000000, -41.000000)">
            <g id="图片损坏-4:3" transform="translate(254.000000, 41.000000)">
                <rect id="蒙版备份-2" fill="#F6F7F9" x="0" y="0" width="90" height="68" rx="5"></rect>
                <g id="编组" transform="translate(33.000000, 19.000000)" fill-rule="nonzero">
                    <path d="M24.7297297,24.8198198 L24.7297297,5.58558559 C24.7252031,4.06992536 23.4976422,2.84236448 21.981982,2.83783784 L2.74774775,2.83783784 C1.23208753,2.84236448 0.00452664117,4.06992536 0,5.58558559 L0,24.8198198 C0.00452664117,26.33548 1.23208753,27.5630409 2.74774775,27.5675676 L21.981982,27.5675676 C23.4976422,27.5630409 24.7252031,26.33548 24.7297297,24.8198198 L24.7297297,24.8198198 Z M7.55630631,17.2635135 L10.990991,21.3988739 L15.7995495,15.2027027 L21.981982,23.4459459 L2.74774775,23.4459459 L7.55630631,17.2635135 Z" id="形状" fill="#EDEEF0"></path>
                    <polygon id="路径" fill="#F6F7F9" points="9.57540343 14.7185802 13.2324363 0 15.8263678 0.685356342 12.6986541 13.2760156 19.0540541 16.6770043 9.88603253 30 7.7027027 28.3989928 15.0881773 17.6672705"></polygon>
                </g>
            </g>
        </g>
    </g>
</svg>