<?xml version="1.0" encoding="UTF-8"?>
<svg width="30px" height="30px" viewBox="0 0 30 30" version="1.1" xmlns="http://www.w3.org/2000/svg" xmlns:xlink="http://www.w3.org/1999/xlink">
    <!-- Generator: Sketch 60.1 (88133) - https://sketch.com -->
    <title>all_but_share_hei</title>
    <desc>Created with Sketch.</desc>
    <g id="app-1.5-论坛" stroke="none" stroke-width="1" fill="none" fill-rule="evenodd">
        <g id="详情-输入文案" transform="translate(-276.000000, -33.000000)" fill-rule="nonzero">
            <g id="分享-黑色备份" transform="translate(276.000000, 33.000000)">
                <g id="举报">
                    <g id="Group">
                        <rect id="Rectangle-path" opacity="0" x="0" y="0" width="30" height="30"></rect>
                        <g id="编组" transform="translate(4.687500, 5.625000)">
                            <path d="M19.6161354,16.5190134 L19.6134892,16.5148638 C18.5927166,14.90253 17.6275841,13.1035738 15.3987291,8.77576135 C15.3925285,8.76372147 15.3925285,8.76372147 15.386328,8.75168178 C13.1381096,4.38625299 12.2004026,2.63670917 11.2492006,1.12930434 C10.8977373,0.66456998 10.2983904,0.601040117 9.98438875,1.047239 L0.956466413,16.9414536 C0.557827231,17.5276474 0.65428727,17.7801429 1.54342471,17.8125 L19.5980031,17.8137708 C19.9284709,17.7945089 20.0265782,17.1580005 19.6161354,16.5190134 Z" id="路径" stroke="#1B2020" stroke-width="1.5"></path>
                            <path d="M10.6337296,13.0457767 C11.1400287,13.0457767 11.5504652,13.4562132 11.5504652,13.9625123 C11.5504652,14.4688114 11.1400287,14.8792479 10.6337296,14.8792479 C10.1274305,14.8792479 9.71699402,14.4688114 9.71699402,13.9625123 C9.71699402,13.4562132 10.1274305,13.0457767 10.6337296,13.0457767 Z M11.0920974,6.6292479 C11.4716929,6.6292479 11.779339,6.93751419 11.779339,7.31710971 L11.3209712,11.6712936 C11.3296547,11.8939648 11.1088443,12.1296614 10.8626034,12.1296614 L10.4042356,12.1296614 C10.158615,12.1296614 9.95455135,11.8939648 9.94648805,11.6706734 L9.4875,7.31648946 C9.4875,6.93751419 9.7957663,6.6292479 10.1753618,6.6292479 L11.0920974,6.6292479 Z" id="形状结合" fill="#000000"></path>
                        </g>
                    </g>
                </g>
            </g>
        </g>
    </g>
</svg>