<svg width="30" height="30" viewBox="0 0 30 30" xmlns="http://www.w3.org/2000/svg" xmlns:xlink="http://www.w3.org/1999/xlink"><defs><path d="M0 15c0 8.284 6.716 15 15 15 8.284 0 15-6.716 15-15 0-8.284-6.716-15-15-15C6.716 0 0 6.716 0 15z" id="a"/><radialGradient cx="26.563%" cy="107.702%" fx="26.563%" fy="107.702%" r="99.107%" id="c"><stop stop-color="#FD5" offset="0%"/><stop stop-color="#FD5" offset="10%"/><stop stop-color="#FF543E" offset="50%"/><stop stop-color="#C837AB" offset="100%"/></radialGradient><radialGradient cx="-16.751%" cy="7.204%" fx="-16.751%" fy="7.204%" r="44.301%" id="d"><stop stop-color="#3771C8" offset="0%"/><stop stop-color="#3771C8" offset="12.8%"/><stop stop-color="#60F" stop-opacity="0" offset="100%"/></radialGradient></defs><g fill="none" fill-rule="evenodd"><mask id="b" fill="#fff"><use xlink:href="#a"/></mask><use fill="#F24D58" fill-rule="nonzero" xlink:href="#a"/><g mask="url(#b)" fill-rule="nonzero"><path d="M15.005 0C8.743 0 6.91.006 6.555.036 5.27.143 4.47.346 3.599.779c-.671.334-1.201.72-1.724 1.262C.924 3.03.347 4.245.138 5.691c-.101.7-.131.844-.137 4.428-.002 1.194 0 2.766 0 4.875 0 6.26.007 8.09.037 8.445.104 1.25.3 2.038.715 2.898a6.32 6.32 0 0 0 4.096 3.347c.618.16 1.3.247 2.178.288.371.016 4.157.028 7.946.028 3.788 0 7.577-.005 7.94-.023 1.014-.048 1.604-.127 2.256-.295a6.28 6.28 0 0 0 4.095-3.354c.407-.84.614-1.657.707-2.842.02-.259.029-4.38.029-8.496 0-4.116-.01-8.23-.03-8.488-.094-1.205-.3-2.015-.721-2.871a5.947 5.947 0 0 0-1.284-1.76C26.973.923 25.759.346 24.313.138c-.7-.102-.84-.132-4.426-.138h-4.882z" fill="url(#c)"/><path d="M15.005 0C8.743 0 6.91.006 6.555.036 5.27.143 4.47.346 3.599.779c-.671.334-1.201.72-1.724 1.262C.924 3.03.347 4.245.138 5.691c-.101.7-.131.844-.137 4.428-.002 1.194 0 2.766 0 4.875 0 6.26.007 8.09.037 8.445.104 1.25.3 2.038.715 2.898a6.32 6.32 0 0 0 4.096 3.347c.618.16 1.3.247 2.178.288.371.016 4.157.028 7.946.028 3.788 0 7.577-.005 7.94-.023 1.014-.048 1.604-.127 2.256-.295a6.28 6.28 0 0 0 4.095-3.354c.407-.84.614-1.657.707-2.842.02-.259.029-4.38.029-8.496 0-4.116-.01-8.23-.03-8.488-.094-1.205-.3-2.015-.721-2.871a5.947 5.947 0 0 0-1.284-1.76C26.973.923 25.759.346 24.313.138c-.7-.102-.84-.132-4.426-.138h-4.882z" fill="url(#d)"/><path d="M15.001 4c-3.022 0-3.402.013-4.589.066-1.185.054-1.993.24-2.701.511A5.457 5.457 0 0 0 5.74 5.846c-.62.611-1 1.225-1.285 1.948-.276.7-.464 1.5-.517 2.67-.053 1.173-.067 1.549-.067 4.536 0 2.987.013 3.361.067 4.535.055 1.17.242 1.97.517 2.67a5.384 5.384 0 0 0 1.284 1.948c.618.612 1.24.989 1.97 1.27.709.272 1.518.457 2.702.51 1.187.054 1.566.067 4.589.067 3.022 0 3.4-.013 4.588-.066 1.184-.054 1.994-.24 2.702-.512a5.452 5.452 0 0 0 1.97-1.27c.62-.61 1-1.224 1.285-1.947.273-.7.461-1.5.517-2.67.053-1.174.067-1.548.067-4.535s-.014-3.362-.067-4.536c-.056-1.17-.244-1.97-.517-2.67a5.393 5.393 0 0 0-1.285-1.948 5.446 5.446 0 0 0-1.97-1.269c-.71-.272-1.52-.457-2.704-.51C18.399 4.012 18.021 4 14.998 4H15zm-.998 1.982H15c2.972 0 3.324.01 4.497.064 1.085.049 1.674.228 2.066.378.52.2.89.438 1.28.823.389.385.63.752.832 1.265.153.387.334.97.383 2.042.054 1.16.065 1.508.065 4.443 0 2.936-.011 3.284-.065 4.444-.05 1.073-.23 1.655-.383 2.042a3.398 3.398 0 0 1-.833 1.264c-.39.385-.759.623-1.279.822-.391.151-.98.33-2.066.38-1.173.052-1.525.063-4.497.063s-3.324-.011-4.497-.064c-1.085-.05-1.674-.228-2.067-.379-.519-.2-.89-.438-1.28-.823-.389-.385-.63-.75-.832-1.264-.153-.387-.334-.97-.384-2.042-.053-1.16-.064-1.508-.064-4.445 0-2.938.011-3.284.064-4.444.05-1.072.231-1.654.384-2.042.201-.513.443-.88.833-1.265.39-.385.76-.623 1.28-.823.392-.152.98-.33 2.066-.38 1.027-.045 1.424-.06 3.499-.061v.002zm6.939 1.827c-.738 0-1.336.59-1.336 1.32 0 .728.598 1.32 1.336 1.32.737 0 1.335-.592 1.335-1.32 0-.73-.598-1.32-1.335-1.32zM15 9.35c-3.156 0-5.715 2.53-5.715 5.649 0 3.12 2.559 5.648 5.715 5.648 3.156 0 5.714-2.528 5.714-5.648 0-3.12-2.558-5.649-5.714-5.649zm0 1.982c2.049 0 3.71 1.642 3.71 3.667S17.05 18.667 15 18.667s-3.71-1.642-3.71-3.667 1.661-3.667 3.71-3.667z" fill="#FFF"/></g></g></svg>