<svg width="30" height="30" viewBox="0 0 30 30" xmlns="http://www.w3.org/2000/svg"><g fill-rule="nonzero" fill="none"><path d="M0 15c0 8.284 6.716 15 15 15 8.284 0 15-6.716 15-15 0-8.284-6.716-15-15-15C6.716 0 0 6.716 0 15z" fill="#2EAEF4"/><path d="M21.371 12.9c0-.15-.003-.298-.01-.445A6.743 6.743 0 0 0 23 10.695a6.306 6.306 0 0 1-1.886.516 3.366 3.366 0 0 0 1.444-1.884 6.313 6.313 0 0 1-2.084.803A3.267 3.267 0 0 0 18.078 9c-1.813-.03-3.283 1.501-3.283 3.419 0 .272.029.536.086.792-2.73-.176-5.15-1.595-6.768-3.736a3.628 3.628 0 0 0-.444 1.755c0 1.214.58 2.294 1.46 2.93a3.142 3.142 0 0 1-1.487-.454v.044c0 1.698 1.132 3.12 2.634 3.452a3.104 3.104 0 0 1-1.482.05c.417 1.391 1.63 2.408 3.066 2.442A6.341 6.341 0 0 1 7 21.127a8.862 8.862 0 0 0 5.033 1.576c6.037.001 9.338-5.248 9.338-9.803z" fill="#FFF"/></g></svg>