<svg width="30" height="30" viewBox="0 0 30 30" xmlns="http://www.w3.org/2000/svg"><path d="M16.087 30h-2.174C6.261 30 0 23.74 0 16.087v-2.174C0 6.261 6.26 0 13.913 0h2.174C23.739 0 30 6.26 30 13.913v2.174C30 23.739 23.74 30 16.087 30zm1.098-13.976c-.283 0-.83 1.06-1.158 1.06a.48.48 0 0 1-.24-.076c-.612-.307-1.148-.623-1.65-1.104-.417-.394-.875-.984-1.115-1.498a.325.325 0 0 1-.055-.164c0-.252.755-.721.755-1.137 0-.11-.557-1.595-.635-1.782-.109-.284-.163-.371-.458-.371-.142 0-.274-.033-.404-.033-.23 0-.405.088-.57.24-.524.492-.787 1.006-.808 1.728v.087c-.012.755.36 1.508.776 2.121.938 1.389 1.912 2.602 3.475 3.312.47.219 1.553.677 2.077.677.623 0 1.64-.393 1.89-1.005.1-.252.187-.557.187-.83 0-.045 0-.11-.023-.165-.076-.13-1.857-1.06-2.044-1.06zm-2.219 5.794a6.91 6.91 0 0 1-3.77-1.137l-2.646.84.864-2.546A6.833 6.833 0 0 1 8.1 14.952c0-3.78 3.083-6.863 6.865-6.863 3.783 0 6.866 3.082 6.866 6.863 0 3.783-3.082 6.866-6.866 6.866zm0-15.107c-4.547 0-8.24 3.694-8.24 8.24a8.21 8.21 0 0 0 1.18 4.254l-1.487 4.427 4.558-1.465a8.246 8.246 0 0 0 12.232-7.215c0-4.546-3.695-8.24-8.243-8.24V6.71z" fill="#4DC247" fill-rule="nonzero"/></svg>