<svg width="18" height="18" viewBox="0 0 18 18" xmlns="http://www.w3.org/2000/svg"><path d="M15 12c-.832 0-1.586.34-2.13.888l-4.648-2.684C8.336 9.822 8.4 9.418 8.4 9c0-.392-.058-.77-.158-1.13l3.398-1.962a3.6 3.6 0 1 0-.774-1.632L7.396 6.28A4.19 4.19 0 0 0 4.2 4.8a4.2 4.2 0 1 0 0 8.4 4.184 4.184 0 0 0 3.146-1.424l4.706 2.716a3.013 3.013 0 0 0-.052.506 3.001 3.001 0 0 0 6 0A3 3 0 0 0 15 12zm-.6-10.65a2.25 2.25 0 1 1 0 4.5 2.25 2.25 0 0 1 0-4.5zM4.2 11.7a2.7 2.7 0 1 1 0-5.4 2.7 2.7 0 1 1 0 5.4zM15 16.8c-.993 0-1.8-.807-1.8-1.8s.807-1.8 1.8-1.8 1.8.807 1.8 1.8-.807 1.8-1.8 1.8z" fill="#1B2020" fill-rule="nonzero" fill-opacity=".3"/></svg>