<svg width="8" height="8" viewBox="0 0 8 8" xmlns="http://www.w3.org/2000/svg"><path d="M3.294 3.803c-.178 0-.388-.002-.594-.004-.196-.003-.388-.005-.542-.005-.67.002-1.274-.399-1.531-1.014A1.642 1.642 0 0 1 .983.984 1.66 1.66 0 0 1 2.787.625a1.647 1.647 0 0 1 1.022 1.522v.282c0 .352.002.79-.004 1.095l-.005.272-.271.005a12.51 12.51 0 0 1-.235.002zm1.416 0c-.089 0-.168 0-.236-.002l-.271-.006-.005-.27c-.006-.307-.005-.744-.004-1.095v-.283A1.648 1.648 0 0 1 5.848.507c.911 0 1.65.737 1.649 1.644-.001.908-.74 1.643-1.652 1.643a51.7 51.7 0 0 0-.542.005c-.206.002-.416.004-.593.004zm1.136-2.739c-.6.001-1.086.486-1.086 1.083v.284c-.001.252-.002.55 0 .808.163 0 .352-.002.537-.004.198-.002.393-.005.548-.005.601 0 1.088-.485 1.088-1.083s-.487-1.083-1.087-1.083zM2.158 7.5A1.65 1.65 0 0 1 .51 5.853a1.65 1.65 0 0 1 1.647-1.647c.154 0 .346-.002.542-.005.308-.003.627-.006.829-.002l.271.006.005.27c.006.307.005.745.004 1.096v.282c0 .908-.739 1.645-1.651 1.647zm3.688 0a1.651 1.651 0 0 1-1.652-1.647V5.57c0-.35-.002-.788.004-1.094l.005-.271.271-.006c.203-.005.521-.001.83.002.195.002.387.005.542.005.59 0 1.137.314 1.432.823a1.64 1.64 0 0 1 0 1.647c-.295.51-.841.824-1.432.824z" fill="#969696" fill-rule="nonzero"/></svg>