<svg width="15" height="15" viewBox="0 0 15 15" xmlns="http://www.w3.org/2000/svg"><path d="M7.03.84c2.502 0 4.714 1.378 5.909 3.455l1.038-.257a.34.34 0 0 1 .416.4l-.669 3.297a.657.657 0 0 1-.49.508.727.727 0 0 1-.697-.205l-2.405-2.525a.34.34 0 0 1 .166-.566l1.25-.309C10.552 3.16 8.888 2.205 7.03 2.205c-3.026 0-5.485 2.514-5.485 5.625 0 3.11 2.46 5.625 5.485 5.625a5.37 5.37 0 0 0 3.345-1.168.682.682 0 1 1 .845 1.07 6.732 6.732 0 0 1-4.19 1.461c-3.786 0-6.848-3.132-6.848-6.988C.182 3.973 3.244.84 7.03.84z" fill="#FFF" fill-rule="nonzero" fill-opacity=".9"/></svg>