<svg width="71" height="71" viewBox="0 0 71 71" xmlns="http://www.w3.org/2000/svg" xmlns:xlink="http://www.w3.org/1999/xlink"><defs><linearGradient x1="0%" y1="0%" y2="100%" id="c"><stop stop-color="#00D2CE" offset="0%"/><stop stop-color="#00B0B6" offset="100%"/></linearGradient><circle id="b" cx="25.5" cy="25.5" r="25.5"/><filter x="-32.4%" y="-26.5%" width="164.7%" height="164.7%" filterUnits="objectBoundingBox" id="a"><feOffset dy="3" in="SourceAlpha" result="shadowOffsetOuter1"/><feGaussianBlur stdDeviation="5" in="shadowOffsetOuter1" result="shadowBlurOuter1"/><feColorMatrix values="0 0 0 0 0 0 0 0 0 0.690196078 0 0 0 0 0.717647059 0 0 0 0.3 0" in="shadowBlurOuter1"/></filter><path d="M37.527 13.176c-.472-.235-.945-.235-1.182 0L12.71 24.914c-.473 0-.709.47-.709.94 0 .469.236.938.473.938l5.672 3.522c.473.235.946.235 1.419-.235L32.09 18.81l.473.235-11.346 11.973c-.236.235-.236.47-.236.704v5.165c0 .47.236.94.709 1.174.473.235.945 0 1.182-.235l2.836-2.817 5.673 3.756c.236.235.473.235.709.235h.473c.472-.235.709-.47.709-.94L38 14.586c0-.705 0-1.174-.473-1.409z" id="e"/><filter x="-23.1%" y="-11.5%" width="146.2%" height="146.2%" filterUnits="objectBoundingBox" id="d"><feOffset dy="3" in="SourceAlpha" result="shadowOffsetOuter1"/><feGaussianBlur stdDeviation="1.5" in="shadowOffsetOuter1" result="shadowBlurOuter1"/><feColorMatrix values="0 0 0 0 0 0 0 0 0 0.644371585 0 0 0 0 0.67 0 0 0 1 0" in="shadowBlurOuter1"/></filter></defs><g fill="none" fill-rule="evenodd"><g transform="translate(10 7)"><use fill="#000" filter="url(#a)" xlink:href="#b"/><use fill="url(#c)" xlink:href="#b"/></g><g fill-rule="nonzero" transform="translate(10 7)"><use fill="#000" filter="url(#d)" xlink:href="#e"/><use fill="#FFF" xlink:href="#e"/></g></g></svg>