<svg width="20" height="17" viewBox="0 0 20 17" xmlns="http://www.w3.org/2000/svg"><path d="M17.024 16.39H2.976A2.579 2.579 0 0 1 .4 13.815V2.575A2.579 2.579 0 0 1 2.976 0h14.048A2.579 2.579 0 0 1 19.6 2.576v11.239a2.579 2.579 0 0 1-2.576 2.575zM2.976 1.405c-.646 0-1.171.525-1.171 1.17v11.24c0 .645.525 1.17 1.17 1.17h14.05c.645 0 1.17-.525 1.17-1.17V2.575c0-.645-.525-1.17-1.17-1.17H2.974zM9.3 13.774a.7.7 0 0 1-.497-.206l-2.313-2.313-2.137 2.137a.702.702 0 1 1-.993-.993l2.633-2.634a.723.723 0 0 1 .994 0l2.81 2.81a.702.702 0 0 1-.497 1.199zm6.925-1.072a.7.7 0 0 1-.496-.205l-3.975-3.975-1.822 1.822a.702.702 0 1 1-.994-.994l2.319-2.318a.702.702 0 0 1 .993 0l4.472 4.471a.702.702 0 0 1-.497 1.2zM7.108 7.26a2.579 2.579 0 0 1-2.576-2.576 2.579 2.579 0 0 1 2.576-2.576 2.579 2.579 0 0 1 2.575 2.576 2.579 2.579 0 0 1-2.575 2.576zm0-3.747a1.172 1.172 0 0 0 0 2.342 1.172 1.172 0 0 0 0-2.342z" fill="#969696" fill-rule="nonzero"/></svg>