<svg width="16" height="18" viewBox="0 0 16 18" xmlns="http://www.w3.org/2000/svg"><path d="M8.125 0a3.23 3.23 0 0 0-3.227 3.125H.823a.824.824 0 0 0 0 1.647h.908v9.208c0 1.73 1.172 3.142 2.62 3.142h7.382c1.446 0 2.62-1.405 2.62-3.142V4.777h.824a.824.824 0 0 0 0-1.646h-3.83A3.22 3.22 0 0 0 8.124 0zM6.44 3.125a1.687 1.687 0 0 1 1.688-1.583c.9 0 1.627.694 1.679 1.583H6.44zM4.35 15.583c-.514 0-1.08-.659-1.08-1.603V4.777h9.539v9.212c0 .94-.565 1.602-1.079 1.602H4.35v-.008zm1.105-1.978c.376 0 .686-.376.686-.848V7.919c0-.472-.307-.848-.686-.848-.376 0-.686.376-.686.848v4.838c0 .469.302.848.686.848zm2.483 0c.376 0 .686-.376.686-.848V7.919c0-.472-.307-.848-.686-.848-.376 0-.686.376-.686.848v4.838c0 .469.31.848.686.848zm2.613 0c.375 0 .686-.376.686-.848V7.919c0-.472-.308-.848-.686-.848-.376 0-.686.376-.686.848v4.838c0 .469.299.848.686.848z" fill="#D8D8D8" fill-rule="nonzero"/></svg>