<svg width="20" height="20" viewBox="0 0 20 20" xmlns="http://www.w3.org/2000/svg"><path d="M9.114 11.292a.795.795 0 0 1-.795-.795v-.886a.795.795 0 0 1 1.59 0v.886a.795.795 0 0 1-.795.795zm4.397 0a.795.795 0 0 1-.794-.795v-.886a.795.795 0 0 1 1.589 0v.886a.794.794 0 0 1-.795.795zM10.294.83A9.131 9.131 0 0 1 19.174 10c0 4.824-3.767 8.808-8.513 9.149v.023l-.608.002H4.458c-.487 0-.945-.19-1.29-.535a1.812 1.812 0 0 1-.534-1.29l.001-1.88a9.075 9.075 0 0 1-1.81-5.5c.008-2.424 1.04-4.805 2.83-6.535C5.45 1.704 7.87.754 10.295.831zm-.05 1.603c-1.99-.063-3.99.722-5.473 2.154-1.481 1.431-2.334 3.4-2.34 5.386a7.466 7.466 0 0 0 1.323 4.3l.169.236.318.427-.002 2.412c0 .062.021.112.065.156.03.03.061.048.097.058l.058.007 5.803-.002.284-.02c3.86-.276 6.91-3.47 7.02-7.333L17.57 10c0-4.045-3.1-7.318-7.107-7.556l-.22-.01z" fill="#1B2020" fill-rule="nonzero" fill-opacity=".3"/></svg>